<?xml version="1.0" standalone="no"?>
<!DOCTYPE svg PUBLIC "-//W3C//DTD SVG 20010904//EN"
 "http://www.w3.org/TR/2001/REC-SVG-20010904/DTD/svg10.dtd">
<svg version="1.0" xmlns="http://www.w3.org/2000/svg"
 width="367.000000pt" height="279.000000pt" viewBox="0 0 367.000000 279.000000"
 preserveAspectRatio="xMidYMid meet">

<g transform="translate(0.000000,279.000000) scale(0.100000,-0.100000)"
fill="#000000" stroke="none">
<path d="M1022 2417 c-61 -23 -99 -62 -112 -117 -10 -43 -10 -54 4 -75 9 -14
25 -25 35 -25 16 0 19 8 20 60 0 33 6 68 13 79 11 18 57 46 63 39 2 -2 -17
-93 -41 -203 -24 -110 -43 -208 -44 -217 0 -15 9 -18 44 -18 l44 0 15 68 c9
37 21 93 28 125 l12 57 47 0 c39 0 49 4 53 20 5 18 0 20 -37 20 -24 0 -45 3
-48 6 -3 3 -2 20 2 37 4 18 11 45 14 60 7 28 8 29 56 22 44 -6 52 -4 75 19 45
45 36 51 -93 53 -71 1 -130 -3 -150 -10z"/>
<path d="M1620 2418 c-98 -28 -167 -152 -112 -201 29 -26 54 -22 46 7 -9 36
14 103 43 125 22 18 83 30 83 17 0 -3 -20 -98 -45 -213 -25 -114 -45 -209 -45
-210 0 -2 22 -3 48 -3 l48 0 44 208 44 209 70 -5 c75 -5 95 5 110 53 5 19 1
20 -147 22 -83 1 -168 -3 -187 -9z"/>
<path d="M2738 2393 c-24 -3 -39 -10 -42 -21 -2 -9 -19 -86 -37 -170 -30 -145
-34 -155 -65 -178 -42 -32 -95 -42 -113 -20 -29 35 6 186 53 225 23 19 39 3
32 -31 -5 -26 -3 -29 16 -26 34 5 46 33 28 66 -14 23 -23 27 -69 30 -50 3 -54
1 -96 -40 -42 -42 -75 -118 -75 -174 0 -42 -53 -73 -66 -39 -5 12 24 176 42
238 5 14 -2 17 -44 17 l-49 0 -22 -107 c-25 -117 -43 -163 -67 -163 -26 0 -27
30 -5 134 29 139 30 136 -24 136 -25 0 -45 -2 -45 -4 0 -2 -11 -59 -25 -127
-14 -68 -23 -136 -19 -152 11 -51 83 -64 130 -23 l28 23 19 -23 c25 -32 81
-32 121 -1 l29 23 25 -23 c43 -40 151 -28 191 21 21 25 30 19 21 -14 l-9 -30
49 0 48 0 17 78 c20 89 28 102 63 102 25 0 25 -1 18 -61 -9 -89 10 -119 76
-119 43 0 89 34 108 80 18 44 4 49 -28 10 -20 -24 -34 -32 -46 -27 -15 6 -16
15 -11 61 8 64 -4 92 -46 110 l-30 13 56 36 c30 21 55 39 55 42 0 3 -12 5 -28
5 -18 0 -48 -17 -90 -50 -34 -28 -62 -49 -62 -47 0 3 9 49 20 102 22 106 24
126 13 123 -5 -1 -25 -3 -45 -5z"/>
<path d="M1845 2258 c-6 -17 -65 -298 -65 -310 0 -4 20 -8 45 -8 50 0 48 -6
80 160 10 47 22 91 27 98 16 19 46 14 53 -8 9 -27 41 -25 60 4 13 19 14 29 6
45 -17 30 -47 35 -85 13 -33 -19 -33 -19 -29 -1 5 17 0 19 -41 19 -28 0 -48
-5 -51 -12z"/>
<path d="M1230 1981 c0 -5 -3 -16 -6 -25 -5 -14 8 -16 109 -16 116 0 127 3
127 41 0 5 -52 9 -115 9 -63 0 -115 -4 -115 -9z"/>
<path d="M1630 1885 c-63 -7 -169 -25 -235 -40 -480 -108 -818 -338 -941 -640
-26 -64 -28 -80 -27 -185 1 -99 5 -126 28 -190 30 -83 91 -179 161 -255 38
-42 42 -44 24 -15 -44 72 -80 158 -106 255 -66 242 -13 424 176 616 258 260
698 410 1201 410 321 -1 532 -45 909 -192 105 -41 232 -108 350 -185 14 -9 -2
7 -34 37 -275 252 -744 401 -1246 398 -80 -1 -197 -7 -260 -14z"/>
<path d="M2314 1568 c-18 -4 -34 -15 -38 -23 -4 -12 6 -15 64 -15 68 0 83 7
58 27 -21 16 -51 20 -84 11z"/>
<path d="M1968 1559 c-35 -20 -17 -29 55 -29 l72 1 -24 19 c-25 21 -75 26
-103 9z"/>
<path d="M1060 1488 l-21 -23 967 -3 c532 -1 969 0 972 3 3 3 -3 14 -13 25
-18 20 -30 20 -951 20 l-933 0 -21 -22z"/>
<path d="M1061 1413 c-5 -21 -24 -94 -41 -163 -50 -200 -61 -234 -71 -219 -7
11 -9 11 -9 -2 0 -9 -25 -27 -60 -44 -33 -16 -69 -37 -80 -47 -22 -21 -27 -68
-7 -68 8 0 7 -4 -3 -10 -13 -9 -13 -11 0 -20 13 -9 13 -10 0 -10 -12 0 -13 -2
-1 -9 11 -7 11 -9 0 -14 -12 -4 -11 -7 1 -16 13 -10 13 -11 0 -11 -12 0 -13
-2 -1 -9 11 -7 11 -9 0 -14 -12 -5 -12 -7 0 -15 11 -8 11 -10 0 -15 -11 -4
-11 -6 -1 -6 23 -2 -14 -31 -38 -31 -19 0 -21 -5 -18 -47 l3 -48 80 3 c67 3
82 7 95 24 35 48 89 98 106 98 13 -1 9 -5 -12 -14 -91 -40 -109 -166 -33 -230
105 -89 263 17 220 147 -16 47 -52 78 -108 93 -26 7 -38 13 -25 13 28 1 90
-24 114 -46 17 -15 18 -2 18 325 l0 342 200 0 200 0 0 -220 0 -220 700 0 700
0 0 60 c1 33 1 141 1 240 0 99 0 194 -1 210 l0 30 -960 0 -959 0 -10 -37z
m1253 -34 c62 -23 110 -71 101 -100 -3 -10 -1 -27 4 -38 8 -14 8 -22 1 -26 -6
-4 -10 -12 -9 -18 4 -37 -2 -56 -16 -50 -14 5 -14 7 0 23 8 9 12 20 9 23 -4 4
-1 13 5 21 22 26 -7 27 -35 1 -15 -14 -31 -25 -35 -25 -11 0 -32 -40 -25 -47
3 -4 14 1 24 10 10 10 22 17 27 17 4 0 -4 -10 -19 -21 -15 -12 -30 -19 -33
-15 -3 3 -12 -2 -18 -11 -11 -15 -15 -15 -29 -4 -13 11 -19 11 -31 1 -8 -7
-24 -10 -35 -7 -11 3 -20 1 -20 -4 0 -5 -9 -9 -20 -9 -11 0 -20 5 -20 11 0 5
-5 7 -11 4 -14 -9 -70 15 -63 27 3 5 12 4 20 -3 10 -8 17 -9 28 0 10 8 16 8
25 -3 10 -12 68 -15 101 -7 3 1 -11 10 -30 21 -19 11 -30 19 -25 19 6 1 30
-11 54 -24 24 -14 45 -24 46 -23 1 2 10 17 19 35 9 17 29 40 46 50 45 26 36
33 -22 17 -90 -25 -266 -19 -364 11 -12 4 -10 1 6 -9 14 -8 20 -15 15 -16 -6
0 -20 7 -31 15 -12 8 -23 13 -25 10 -7 -7 -4 60 4 83 8 21 64 57 117 73 14 4
66 8 117 8 70 1 105 -4 147 -20z m-1165 -3 c8 -9 11 -61 9 -162 l-3 -149 -63
-3 c-46 -2 -64 1 -68 11 -5 15 52 270 68 300 11 20 41 22 57 3z m878 -172 c-3
-3 -12 -4 -19 -1 -8 3 -5 6 6 6 11 1 17 -2 13 -5z m-60 -32 c7 -8 21 -12 33
-9 13 3 20 0 20 -8 0 -8 7 -18 16 -23 27 -15 -4 -26 -32 -11 -18 9 -21 15 -12
21 9 5 5 8 -12 8 -22 0 -67 19 -46 20 5 0 3 7 -4 15 -11 13 -10 14 6 9 10 -4
24 -13 31 -22z m116 21 c-7 -2 -21 -2 -30 0 -10 3 -4 5 12 5 17 0 24 -2 18 -5z
m50 -10 c-7 -2 -19 -2 -25 0 -7 3 -2 5 12 5 14 0 19 -2 13 -5z m-164 -148 c52
-26 191 -40 283 -28 102 14 138 27 145 53 3 11 9 20 15 20 14 0 -10 -39 -35
-54 -69 -45 -308 -48 -393 -5 -27 13 -49 31 -50 39 -1 9 1 10 3 2 3 -7 17 -19
32 -27z m-1109 -195 c0 -5 -7 -10 -15 -10 -8 0 -15 5 -15 10 0 6 7 10 15 10 8
0 15 -4 15 -10z m0 -86 c0 -24 -5 -34 -15 -34 -10 0 -15 10 -15 33 0 19 3 37
6 40 13 13 24 -5 24 -39z m254 -124 c44 -43 9 -123 -53 -123 -44 0 -71 28 -71
73 0 71 72 100 124 50z"/>
<path d="M2073 1380 c-99 -21 -162 -84 -119 -119 20 -17 142 -41 212 -41 121
0 234 33 234 69 0 25 -38 58 -90 76 -54 20 -179 28 -237 15z m107 -32 c0 -16
-3 -19 -11 -11 -6 6 -8 16 -5 22 11 17 16 13 16 -11z m-110 3 c0 -12 -20 -25
-27 -18 -7 7 6 27 18 27 5 0 9 -4 9 -9z"/>
<path d="M1043 584 c-3 -8 -1 -20 5 -26 15 -15 43 8 35 28 -7 19 -32 18 -40
-2z"/>
<path d="M1210 990 l0 -350 26 -40 27 -40 148 0 149 0 0 390 0 390 -175 0
-175 0 0 -350z m320 215 l0 -95 -140 0 -140 0 0 95 0 95 140 0 140 0 0 -95z
m-260 -190 c0 -19 -4 -35 -10 -35 -5 0 -10 16 -10 35 0 19 5 35 10 35 6 0 10
-16 10 -35z"/>
<path d="M3259 1235 c56 -116 70 -266 37 -380 -33 -111 -84 -193 -181 -291
-102 -102 -195 -167 -340 -235 -496 -233 -1201 -238 -1704 -13 -101 45 -61 15
62 -47 186 -94 443 -142 762 -143 270 0 477 31 715 106 132 42 339 145 435
215 258 192 384 442 314 628 -25 67 -60 130 -94 170 l-26 30 20 -40z"/>
<path d="M1590 720 l0 -170 320 0 320 0 0 28 c1 36 31 102 61 129 79 72 205
50 256 -46 13 -24 23 -59 23 -78 l0 -33 189 0 c116 0 192 -4 196 -10 3 -5 15
-10 26 -10 16 0 19 7 19 50 0 29 -4 50 -11 50 -6 0 -10 16 -8 38 1 20 1 79 0
130 l-1 92 -695 0 -695 0 0 -170z m1250 40 c0 -6 -47 -10 -120 -10 -73 0 -120
4 -120 10 0 6 47 10 120 10 73 0 120 -4 120 -10z m0 -40 c0 -6 -47 -10 -120
-10 -73 0 -120 4 -120 10 0 6 47 10 120 10 73 0 120 -4 120 -10z m-57 -47
c-34 -2 -93 -2 -130 0 -37 2 -9 3 62 3 72 0 102 -1 68 -3z"/>
<path d="M2342 702 c-97 -52 -96 -199 2 -246 94 -45 196 20 196 124 0 54 -25
97 -72 121 -46 23 -83 24 -126 1z m132 -94 c14 -40 0 -77 -38 -94 -30 -15 -35
-15 -64 0 -86 44 -27 168 63 132 16 -7 34 -24 39 -38z"/>
<path d="M2384 589 c-3 -6 0 -17 7 -25 18 -17 44 -2 36 20 -7 18 -33 21 -43 5z"/>
</g>
</svg>
