<?xml version="1.0" standalone="no"?>
<!DOCTYPE svg PUBLIC "-//W3C//DTD SVG 20010904//EN"
 "http://www.w3.org/TR/2001/REC-SVG-20010904/DTD/svg10.dtd">
<svg version="1.0" xmlns="http://www.w3.org/2000/svg"
 width="1224.000000pt" height="1185.000000pt" viewBox="0 0 1224.000000 1185.000000"
 preserveAspectRatio="xMidYMid meet">

<g transform="translate(0.000000,1185.000000) scale(0.100000,-0.100000)"
fill="#000000" stroke="none">
<path d="M8546 11772 c-2 -4 -11 -59 -20 -122 -9 -63 -21 -142 -26 -175 -12
-77 -47 -319 -66 -455 -8 -58 -19 -134 -24 -170 -5 -36 -16 -114 -25 -175 -8
-60 -20 -139 -25 -175 -5 -36 -16 -114 -25 -175 -20 -141 -36 -252 -71 -495
-23 -153 -23 -227 -1 -350 10 -52 22 -120 27 -150 13 -83 57 -334 74 -432 9
-48 20 -116 26 -150 14 -93 48 -296 60 -353 5 -27 19 -106 31 -175 22 -134 28
-173 54 -320 17 -100 27 -162 45 -273 7 -38 10 -71 7 -73 -5 -5 -291 11 -403
22 l-62 7 -7 41 c-6 37 -19 141 -45 346 -37 288 -50 390 -75 585 -28 213 -60
467 -75 590 -12 99 -23 138 -38 143 -9 3 -12 -190 -12 -841 0 -464 -2 -846 -4
-848 -3 -2 -44 -1 -93 3 -48 4 -133 11 -187 15 l-100 8 2 532 c1 293 -2 534
-6 537 -4 2 -35 7 -69 11 l-63 7 0 -541 0 -541 -52 5 c-29 2 -101 7 -159 11
-58 3 -111 9 -117 13 -9 5 -12 118 -10 452 l3 444 37 20 38 20 0 481 c0 264 2
483 5 486 3 3 24 1 48 -4 23 -5 61 -13 84 -18 38 -9 48 -6 105 24 35 19 83 45
108 58 l45 23 2 587 3 586 -23 5 c-12 3 -55 14 -94 26 -95 27 -110 28 -85 1
43 -46 45 -72 49 -591 4 -403 2 -497 -9 -506 -16 -13 -304 -163 -312 -163 -3
0 -6 180 -6 401 0 270 -4 407 -11 421 -8 16 -17 19 -40 14 -45 -9 -76 -34 -99
-81 -20 -42 -21 -46 -20 -1356 l1 -1314 -153 4 c-84 2 -155 5 -158 6 -3 2 -3
592 0 1312 5 1218 6 1311 23 1352 9 24 16 45 15 46 -7 6 -140 36 -144 32 -2
-2 -5 -624 -7 -1383 l-2 -1378 -25 -12 c-26 -13 -241 -84 -253 -84 -4 0 -8
575 -9 1277 l-3 1278 -40 7 c-22 4 -55 11 -72 14 l-33 7 0 -1320 c0 -1045 -3
-1323 -12 -1330 -7 -6 -40 -20 -73 -31 -33 -11 -83 -29 -111 -41 -29 -11 -54
-17 -58 -14 -3 3 -6 537 -6 1187 l0 1181 -37 12 c-21 6 -57 12 -81 12 l-43 1
20 -21 c11 -12 23 -40 26 -63 3 -23 5 -333 3 -691 l-3 -650 -23 -42 c-12 -24
-35 -52 -52 -64 -34 -26 -32 -34 10 -42 19 -4 37 -18 50 -39 19 -32 20 -51 20
-433 l0 -400 -115 -44 c-64 -24 -119 -40 -123 -37 -4 4 -9 159 -10 344 -3 288
-6 340 -19 355 -20 21 -42 21 -70 -1 -23 -17 -23 -17 -25 -385 l-3 -369 -90
-34 c-49 -19 -97 -38 -106 -43 -9 -6 -20 -7 -23 -4 -3 4 -6 537 -6 1185 l0
1178 -25 0 -25 0 0 -144 0 -145 -70 -43 -70 -43 0 -1031 0 -1031 -42 -18 c-24
-9 -52 -21 -63 -25 -11 -4 -45 -18 -75 -32 -30 -14 -73 -32 -95 -39 -22 -7
-44 -16 -50 -20 -5 -4 -25 -10 -42 -14 l-33 -6 -2 998 c-3 1092 0 1043 -62
1062 -38 12 -122 18 -118 8 2 -3 9 -22 17 -41 13 -30 15 -185 15 -1059 l0
-1024 -80 -31 -80 -30 0 938 c0 1045 4 980 -65 947 l-35 -17 0 -949 c0 -747
-3 -951 -12 -958 -15 -11 -125 -53 -139 -53 -5 0 -9 399 -9 984 l0 984 -51 12
c-58 14 -67 10 -45 -22 14 -20 16 -119 16 -997 l0 -974 -42 7 c-24 3 -60 9
-80 12 l-38 6 -2 848 c-2 467 -6 851 -10 855 -3 4 -16 4 -28 0 -50 -16 -50
-16 -50 -879 l0 -804 -42 5 c-24 4 -59 11 -78 18 l-35 12 0 816 0 815 -35 5
c-43 5 -45 4 -28 -25 10 -18 14 -177 16 -807 1 -432 -1 -788 -5 -792 -4 -3
-38 -2 -75 4 l-68 10 0 676 c0 413 -4 682 -10 691 -7 12 -14 12 -27 4 -42 -26
-43 -31 -43 -708 l0 -648 -22 6 c-13 3 -53 11 -90 17 l-68 12 0 49 c0 41 3 51
20 55 19 5 20 14 20 139 0 110 -3 136 -15 140 -13 5 -15 54 -15 355 0 285 3
349 14 356 10 6 15 39 18 118 3 61 9 117 12 127 5 11 1 18 -13 23 -12 3 -25 3
-31 0 -6 -3 -10 -51 -10 -109 l0 -102 -47 -26 -48 -25 -3 -382 c-2 -409 -4
-401 48 -361 14 11 29 20 33 20 4 0 6 -50 5 -111 l-3 -111 -43 -23 c-56 -30
-56 -30 -57 -68 0 -28 -3 -32 -25 -31 -60 3 -239 31 -410 65 -141 27 -52 63
-905 -360 -424 -210 -880 -437 -1015 -504 l-245 -122 -3 -43 c-4 -56 23 -126
62 -159 27 -23 36 -25 85 -20 l55 6 71 -62 c38 -34 75 -66 81 -72 6 -5 55 -48
109 -95 114 -98 757 -659 767 -669 3 -3 11 -87 17 -186 6 -99 16 -245 21 -325
6 -80 17 -264 25 -410 9 -146 20 -312 25 -370 6 -58 10 -121 10 -141 0 -36 0
-36 -67 -54 -111 -30 -169 -69 -204 -137 -17 -33 -19 -60 -19 -241 0 -204 0
-204 26 -243 15 -21 34 -44 43 -51 15 -11 80 -29 186 -52 102 -21 191 -42 230
-53 22 -6 83 -13 135 -14 88 -3 150 -10 275 -34 28 -6 61 -11 75 -12 23 -3 26
-8 36 -83 7 -44 17 -105 24 -135 25 -108 29 -102 -90 -126 -391 -80 -610 -125
-641 -134 -48 -13 -77 -45 -62 -68 11 -19 29 -26 183 -72 58 -18 130 -40 160
-50 30 -10 116 -37 190 -60 74 -23 146 -45 160 -50 14 -5 86 -27 160 -50 74
-23 160 -50 190 -60 30 -10 102 -32 160 -50 58 -18 130 -40 160 -50 30 -10
116 -37 190 -60 231 -72 293 -91 350 -110 30 -10 102 -32 160 -50 58 -18 130
-40 160 -50 30 -10 116 -37 190 -60 74 -23 146 -45 160 -50 14 -5 86 -27 160
-50 74 -23 146 -45 160 -50 14 -5 86 -27 160 -50 74 -23 160 -50 190 -60 30
-10 116 -37 190 -60 74 -23 146 -45 160 -50 14 -5 99 -32 190 -60 91 -28 212
-66 270 -84 58 -18 152 -48 210 -66 58 -18 130 -40 160 -50 30 -10 116 -37
190 -60 74 -23 146 -45 160 -50 14 -5 86 -27 160 -50 74 -23 160 -50 190 -60
30 -10 116 -37 190 -60 74 -23 146 -45 160 -50 14 -5 86 -27 160 -50 74 -23
146 -45 160 -50 172 -62 398 -56 605 15 52 18 316 119 350 134 53 24 97 41
175 71 47 17 99 38 115 45 17 7 50 20 75 30 25 9 54 21 65 26 11 5 135 54 275
109 140 56 264 105 275 110 11 5 67 28 125 50 58 22 114 45 125 50 11 4 67 27
125 50 58 22 114 45 125 50 11 5 74 30 140 56 66 25 134 52 150 59 17 8 129
53 250 101 121 47 234 92 250 99 17 7 77 32 135 55 58 22 115 45 128 51 42 17
67 28 172 69 58 22 114 45 125 50 11 4 67 27 125 50 142 57 147 59 173 70 12
5 58 23 102 40 44 17 98 39 120 49 22 10 51 22 65 26 14 4 48 18 75 30 28 12
94 39 148 61 108 43 173 89 162 115 -8 22 -76 46 -150 53 -56 6 -92 10 -310
36 -44 6 -143 17 -220 25 -151 17 -285 36 -285 41 0 2 20 35 45 73 69 107 126
244 150 361 4 19 12 40 17 47 5 6 55 25 111 43 56 17 111 36 122 40 11 5 47
17 80 26 118 33 192 86 217 156 18 50 27 93 69 353 38 234 36 281 -12 331 -45
47 -78 63 -152 75 -34 6 -65 15 -68 21 -4 6 -3 25 1 42 4 17 13 63 20 101 6
39 18 106 26 150 8 44 19 105 24 135 21 116 41 227 50 275 35 184 40 224 40
294 0 74 -2 82 -33 123 -27 35 -231 210 -491 421 -22 18 -81 66 -131 107 -50
41 -111 91 -136 110 -89 72 -196 165 -246 216 -102 103 -129 163 -203 439 -5
17 -16 57 -25 90 -17 61 -26 92 -44 155 -5 19 -32 116 -61 215 -28 99 -58 205
-66 235 -16 58 -16 60 -59 205 -30 105 -54 187 -65 230 -55 205 -90 280 -151
318 -43 26 -55 28 -259 42 -118 8 -278 19 -355 25 -77 5 -236 17 -354 26 -118
8 -218 17 -223 20 -4 3 -8 16 -8 29 0 12 -7 58 -15 101 -9 44 -20 104 -25 134
-18 102 -40 225 -50 275 -5 28 -17 93 -25 145 -9 52 -20 113 -25 135 -5 22
-16 81 -25 130 -32 185 -37 211 -45 255 -9 45 -32 169 -50 270 -30 167 -41
230 -50 275 -5 28 -16 93 -25 145 -9 52 -20 112 -26 132 -6 25 -6 51 0 75 5
21 17 92 26 158 9 66 20 145 25 175 5 30 16 105 25 165 9 61 20 135 25 165 5
30 14 89 20 130 11 85 36 245 50 335 5 33 14 94 20 135 5 41 14 104 20 140 19
121 47 312 74 500 9 58 18 114 21 126 4 17 -4 23 -48 38 -29 10 -61 22 -72 26
-52 23 -165 57 -169 52z m-1702 -4222 c61 -5 154 -12 206 -14 227 -12 454 -26
570 -35 69 -6 202 -15 295 -21 94 -6 262 -17 374 -25 112 -8 233 -15 269 -15
36 0 102 -4 146 -10 45 -5 207 -17 361 -25 154 -9 300 -18 325 -21 25 -2 108
-9 185 -14 409 -26 449 -34 483 -92 15 -25 15 -28 -3 -48 -15 -16 -16 -24 -7
-43 6 -12 14 -32 17 -44 4 -13 11 -23 16 -23 15 0 10 36 -6 50 -17 14 -17 56
0 53 5 -1 17 -30 28 -65 10 -35 27 -93 38 -130 11 -37 18 -72 14 -78 -3 -5 -2
-10 2 -10 5 0 14 -25 22 -57 14 -62 39 -147 51 -178 5 -11 11 -31 14 -45 5
-27 15 -64 41 -155 10 -33 23 -82 29 -110 7 -27 15 -57 18 -65 3 -8 13 -42 22
-75 31 -114 39 -140 52 -183 8 -23 14 -54 14 -67 0 -13 5 -27 11 -31 6 -3 9
-21 7 -39 -2 -19 0 -33 5 -32 5 1 17 -29 28 -68 30 -114 23 -155 -28 -155 -32
0 -52 36 -80 143 -14 51 -29 108 -35 127 -26 95 -30 129 -19 162 10 30 9 31
-4 14 -8 -11 -16 -18 -18 -15 -3 4 -37 130 -57 209 -4 19 -20 80 -35 135 -15
55 -32 123 -39 152 -6 28 -15 55 -19 59 -4 4 -7 20 -7 35 0 15 -4 31 -10 34
-5 3 -10 14 -10 24 0 35 -41 145 -66 178 -47 61 -84 70 -319 77 -115 4 -284 9
-375 12 -453 16 -600 18 -600 12 0 -14 -40 -9 -41 5 0 9 -2 9 -6 0 -2 -7 -4
-15 -4 -17 0 -3 -14 -20 -30 -37 -29 -31 -30 -37 -26 -93 7 -81 29 -186 39
-186 4 0 8 -13 8 -29 0 -17 5 -33 11 -37 6 -4 9 -19 5 -36 -3 -16 -2 -27 3
-24 9 6 26 -56 91 -329 12 -49 25 -99 30 -110 4 -11 15 -51 25 -90 19 -79 42
-173 55 -225 5 -19 16 -64 24 -100 8 -36 22 -91 31 -123 19 -72 19 -101 1
-116 -19 -16 -55 15 -66 59 -5 19 -16 62 -25 95 -9 33 -20 76 -25 95 -25 107
-59 239 -85 330 -7 25 -16 56 -18 70 -3 14 -24 93 -47 175 -22 83 -43 166 -47
185 -3 19 -9 40 -13 45 -4 6 -15 44 -25 85 -10 41 -21 84 -25 95 -4 11 -13 40
-20 65 -7 25 -21 71 -31 103 -11 32 -17 62 -15 66 5 8 -6 18 -66 64 -27 20
-52 28 -95 32 -84 7 -465 15 -1029 22 l-491 6 -36 -37 c-34 -33 -37 -42 -37
-91 0 -31 13 -101 31 -162 17 -60 35 -124 39 -143 4 -19 13 -60 20 -90 7 -30
16 -64 20 -75 19 -49 40 -130 40 -154 0 -15 4 -31 8 -36 9 -11 21 -49 53 -170
30 -114 73 -277 99 -370 12 -44 28 -105 36 -135 8 -30 20 -71 25 -90 29 -93
20 -140 -25 -140 -56 1 -85 57 -142 279 -20 75 -45 174 -56 221 -11 47 -24 94
-29 105 -4 11 -10 31 -13 45 -3 14 -12 54 -21 90 -9 36 -20 81 -25 100 -4 19
-13 51 -19 70 -6 19 -11 47 -11 62 0 16 -4 28 -9 28 -5 0 -11 17 -14 38 -6 39
-30 137 -39 162 -4 8 -9 26 -11 40 -3 14 -12 52 -22 85 -9 33 -20 78 -25 100
-5 22 -20 85 -35 140 -28 108 -54 215 -62 255 -2 14 -8 34 -13 45 -4 11 -15
54 -24 95 -44 201 -5 227 298 200z m-493 -96 c43 -39 32 -1 251 -864 55 -217
111 -440 124 -495 13 -55 30 -125 39 -155 14 -54 27 -106 87 -350 31 -126 67
-246 95 -310 81 -187 142 -288 294 -490 221 -292 357 -469 369 -480 3 -3 25
-32 50 -65 25 -33 47 -62 51 -65 3 -3 26 -34 51 -70 112 -160 108 -121 101
-1038 l-6 -762 -37 0 c-20 0 -72 9 -116 21 -220 58 -258 60 -314 13 -33 -29
-56 -72 -64 -124 -3 -19 -6 -141 -7 -270 -1 -129 -4 -238 -6 -243 -3 -4 -17 2
-33 13 -38 27 -48 69 -49 200 -2 186 -43 431 -101 610 -30 90 -38 113 -76 198
-13 29 -24 54 -24 56 0 9 -95 164 -123 201 -64 85 -175 182 -252 220 -176 87
-346 58 -497 -83 -205 -193 -328 -564 -328 -984 0 -80 -3 -153 -6 -162 -10
-25 -63 -22 -256 14 -70 13 -213 40 -263 50 -22 5 -76 15 -120 23 -106 20
-288 54 -350 67 -27 6 -111 22 -185 36 -74 14 -178 34 -230 44 -52 10 -169 33
-260 49 -91 17 -185 35 -210 40 -25 6 -85 17 -135 26 -49 9 -106 20 -125 25
-19 4 -78 16 -130 25 -208 37 -257 56 -271 106 -4 13 -8 62 -8 109 -2 81 -20
230 -40 315 -66 287 -210 519 -368 594 -27 13 -56 27 -65 32 -10 5 -47 9 -83
9 -171 0 -323 -152 -398 -397 -40 -129 -47 -167 -59 -324 -6 -82 -16 -157 -23
-165 -10 -14 -22 -15 -106 -4 -52 7 -101 17 -110 21 -15 7 -17 32 -16 191 0
152 -2 188 -16 215 -28 53 -90 86 -182 98 -27 3 -80 11 -116 17 l-66 12 -12
170 c-6 94 -16 232 -21 306 -6 74 -17 254 -25 400 -9 146 -20 317 -25 382 -11
131 -13 278 -4 278 5 0 104 -85 180 -155 6 -5 73 -64 150 -130 76 -66 161
-142 187 -169 l48 -49 142 12 c78 6 189 16 247 21 58 6 195 17 305 25 110 8
250 20 310 25 104 10 309 27 600 50 72 6 177 15 235 20 58 5 141 12 185 15
248 17 316 27 329 49 13 23 12 90 -19 846 -24 619 -34 868 -41 1065 -4 99 -11
188 -15 197 -10 19 -47 31 -149 48 -41 7 -103 19 -138 26 -35 8 -75 14 -90 14
-34 0 -19 12 43 34 28 10 91 33 140 51 50 18 124 45 165 60 41 15 84 30 95 35
11 5 85 32 165 60 141 51 288 104 480 173 99 36 304 110 425 153 39 14 79 29
90 34 11 4 52 19 90 33 89 32 233 84 405 147 147 54 202 59 241 24z m1913
-503 c108 -8 111 -9 137 -40 15 -18 29 -45 32 -59 3 -15 17 -70 32 -122 37
-130 74 -265 90 -325 7 -27 20 -77 30 -110 52 -191 97 -363 130 -495 13 -52
33 -131 45 -174 27 -100 24 -146 -10 -162 -14 -7 -126 -20 -250 -29 -124 -8
-270 -20 -325 -25 -55 -5 -199 -16 -320 -25 -121 -9 -259 -20 -306 -25 -209
-24 -243 -7 -282 145 -15 59 -40 153 -93 345 -14 52 -36 136 -49 185 -13 50
-35 133 -49 185 -40 148 -73 268 -95 350 -23 85 -46 169 -68 250 -24 87 -27
131 -12 141 16 10 1199 1 1363 -10z m1216 -32 c223 -6 417 -15 432 -20 14 -6
35 -20 46 -32 19 -21 29 -50 88 -277 14 -52 37 -138 50 -190 51 -192 74 -277
98 -370 29 -113 50 -188 78 -290 11 -41 23 -91 25 -111 4 -32 2 -37 -24 -47
-15 -6 -66 -13 -113 -16 -47 -3 -170 -12 -275 -21 -734 -60 -704 -58 -730 -41
-47 31 -50 41 -127 336 -16 63 -40 156 -53 205 -73 283 -110 424 -140 540 -18
72 -43 166 -55 209 -24 88 -20 122 13 137 12 5 78 7 152 4 72 -2 312 -10 535
-16z m-7285 -86 c-4 -10 -12 -36 -17 -58 -27 -117 -133 -214 -177 -162 -18 22
-42 99 -36 116 4 14 204 119 229 120 4 1 5 -7 1 -16z m185 -68 c41 -47 76 -85
79 -85 3 0 38 -37 78 -83 39 -45 81 -93 93 -107 12 -14 30 -36 39 -50 9 -14
28 -38 43 -55 14 -16 36 -41 48 -55 11 -14 57 -62 101 -108 47 -47 79 -88 76
-96 -3 -7 -18 -16 -34 -19 -89 -18 -133 -30 -254 -73 -123 -42 -262 -93 -299
-107 -8 -4 -53 -16 -100 -27 -47 -12 -116 -32 -155 -46 -66 -22 -76 -23 -175
-15 -58 6 -136 13 -175 16 -38 3 -119 10 -180 15 -60 5 -204 16 -320 25 -115
9 -249 20 -296 25 -47 6 -113 10 -147 10 -66 0 -74 8 -47 44 14 19 16 19 53 2
34 -15 45 -16 81 -5 44 13 92 62 125 127 18 35 31 39 60 17 48 -36 145 -4 201
66 19 24 35 50 35 57 0 17 14 15 52 -8 40 -24 56 -25 106 -5 34 14 122 109
122 132 0 5 6 17 13 27 12 17 15 17 55 -4 47 -24 79 -23 145 5 35 14 61 47
123 151 10 17 11 17 32 -4 27 -27 84 -38 121 -22 76 31 182 180 203 287 6 29
14 53 17 53 4 0 40 -38 81 -85z m210 55 c63 -12 171 -32 240 -45 69 -14 186
-36 260 -49 74 -14 196 -37 270 -51 74 -14 173 -32 220 -41 47 -8 108 -19 135
-25 28 -5 109 -20 180 -34 72 -13 159 -29 194 -36 l63 -12 -123 -39 c-68 -21
-142 -47 -164 -58 -50 -24 -337 -116 -389 -125 -21 -3 -46 -10 -55 -15 -9 -5
-59 -23 -111 -39 -52 -16 -128 -44 -169 -60 -103 -43 -112 -42 -163 27 -49 66
-78 100 -169 197 -96 101 -179 196 -197 225 -9 14 -34 45 -57 70 -121 136
-127 145 -99 137 11 -3 71 -15 134 -27z m-720 -149 c0 -82 -96 -231 -149 -231
-32 0 -67 52 -72 110 l-4 35 100 52 c110 58 125 62 125 34z m-315 -158 c-4
-10 -12 -34 -17 -53 -21 -77 -81 -150 -121 -150 -24 0 -47 35 -53 82 l-7 47
89 45 c98 50 120 55 109 29z m-295 -146 c0 -35 -55 -142 -86 -166 -15 -11 -34
-21 -44 -21 -29 0 -53 37 -54 83 l-1 42 80 41 c94 49 105 52 105 21z m-290
-143 c0 -22 -47 -114 -72 -141 -12 -13 -30 -23 -40 -23 -22 0 -46 35 -50 75
-3 28 2 32 72 67 85 43 90 44 90 22z m-268 -134 c-4 -34 -32 -92 -60 -122 -32
-35 -74 -37 -90 -5 -17 34 -22 61 -14 72 10 14 145 83 157 80 6 -1 9 -12 7
-25z m-272 -130 c0 -26 -26 -78 -53 -107 -29 -32 -65 -30 -78 4 -16 42 -8 55
56 88 74 40 75 40 75 15z m250 -111 c74 -4 191 -13 260 -18 69 -6 208 -17 309
-25 101 -8 186 -18 189 -21 4 -3 -2 -29 -13 -58 -16 -45 -18 -77 -16 -247 1
-107 6 -235 11 -285 12 -109 13 -212 3 -218 -5 -3 -64 45 -133 105 -183 161
-298 261 -450 393 -74 65 -153 134 -175 154 -22 20 -74 65 -115 101 -102 88
-100 85 -69 119 15 16 27 21 43 16 11 -4 82 -11 156 -16z m1148 -100 c40 -5
93 -9 116 -9 l43 0 7 -97 c3 -54 11 -174 16 -268 6 -93 14 -235 20 -315 8
-129 23 -376 34 -572 2 -38 1 -68 -1 -68 -3 0 -57 46 -121 103 -64 56 -132
116 -153 132 -20 17 -88 76 -151 131 l-114 102 -3 53 c-1 30 -6 135 -11 234
-24 438 -24 449 -6 506 29 89 34 91 151 84 55 -3 133 -11 173 -16z m8797 -257
c11 -4 29 -13 40 -19 17 -11 18 -14 5 -23 -12 -9 -10 -10 8 -5 14 4 28 1 38
-9 9 -9 32 -29 52 -44 21 -15 43 -33 51 -40 8 -8 46 -39 85 -70 39 -31 76 -62
81 -68 6 -6 33 -27 61 -47 60 -43 90 -75 61 -64 -11 4 -16 3 -12 -4 4 -6 14
-8 23 -4 9 3 26 -4 41 -19 14 -14 54 -46 87 -73 177 -138 184 -145 173 -164
-6 -13 -6 -19 1 -19 5 0 10 5 10 11 0 18 27 3 95 -53 70 -57 80 -87 35 -100
-31 -8 -106 -22 -225 -42 -49 -8 -124 -21 -165 -28 -96 -17 -250 -16 -287 1
-78 36 -91 44 -118 67 -15 13 -31 24 -34 24 -3 0 -18 10 -33 23 -14 12 -39 31
-53 42 -15 11 -53 39 -84 62 -31 24 -59 43 -63 43 -5 0 -8 7 -8 15 0 8 -6 12
-12 10 -7 -3 -24 5 -38 18 -14 12 -54 42 -89 66 -36 24 -74 52 -85 62 -11 10
-28 21 -38 25 -18 5 -24 19 -10 27 4 2 1 2 -6 0 -18 -4 -74 36 -67 48 4 5 -2
9 -12 9 -10 0 -76 43 -148 95 -71 53 -146 107 -167 120 -20 13 -39 28 -42 33
-13 21 28 34 131 43 107 9 185 17 418 43 129 15 268 18 300 8z m-1102 -103
c31 -7 54 -16 51 -20 -3 -5 2 -6 10 -3 17 6 76 -16 76 -28 0 -5 7 -8 15 -8 8
0 15 -4 15 -10 0 -5 6 -10 14 -10 21 0 31 -21 15 -31 -10 -7 -6 -8 11 -4 19 5
36 -2 63 -22 45 -35 97 -72 117 -83 12 -8 11 -13 -10 -34 -13 -15 -18 -26 -12
-26 6 0 18 10 27 23 12 15 19 18 22 10 3 -7 9 -13 14 -13 10 0 112 -73 137
-97 7 -7 16 -13 20 -13 4 0 20 -11 36 -25 16 -14 32 -25 35 -25 3 0 20 -13 36
-28 17 -15 62 -49 100 -75 104 -70 131 -97 114 -109 -11 -8 -10 -8 5 -4 22 7
49 -11 39 -27 -4 -7 0 -8 11 -4 12 5 36 -7 77 -39 32 -26 59 -49 59 -51 0 -3
-7 -11 -15 -19 -11 -12 -19 -12 -35 -4 -22 12 -27 5 -7 -13 23 -23 67 -47 67
-38 0 5 -7 11 -15 15 -8 3 -15 10 -15 16 0 5 7 10 15 10 8 0 15 -4 15 -10 0
-5 5 -10 12 -10 9 0 9 3 0 12 -7 7 -12 18 -12 26 0 12 3 12 15 2 8 -7 15 -27
15 -45 0 -28 -4 -33 -37 -43 -21 -6 -54 -14 -73 -17 -19 -3 -57 -10 -85 -15
-27 -5 -93 -16 -145 -25 -52 -8 -117 -19 -145 -24 -27 -6 -86 -15 -130 -21
-44 -7 -96 -15 -115 -20 -63 -15 -187 -38 -390 -71 -36 -6 -100 -17 -144 -26
-43 -8 -113 -16 -155 -16 -107 -3 -129 14 -182 141 -5 12 -13 32 -19 45 -5 12
-28 67 -51 122 -23 55 -45 104 -50 110 -5 5 -9 15 -9 22 0 7 -11 36 -24 65
-70 152 -89 196 -101 229 -15 42 -52 127 -65 151 -12 21 -13 88 -2 106 14 21
80 52 112 52 24 0 30 -4 30 -21 0 -11 4 -17 10 -14 6 4 8 15 5 24 -5 16 4 19
82 24 49 4 138 11 198 17 196 20 270 27 281 29 6 0 36 -4 67 -10z m-5685 -96
c2 -24 -1 -43 -6 -43 -9 0 -72 74 -72 85 0 3 17 5 38 3 36 -3 37 -4 40 -45z
m-268 17 c16 -8 18 -25 20 -122 2 -62 3 -128 4 -147 1 -33 -1 -35 -45 -46 -26
-7 -51 -10 -57 -6 -5 3 -12 73 -15 154 l-6 148 32 14 c39 17 43 18 67 5z
m4965 -28 c13 -9 31 -35 40 -57 9 -22 23 -54 31 -71 44 -101 84 -197 84 -206
0 -6 16 -45 36 -87 20 -42 40 -85 45 -96 4 -11 23 -58 43 -105 19 -47 49 -121
66 -165 17 -44 37 -91 43 -104 6 -13 12 -49 12 -80 l0 -56 -40 2 c-37 2 -38 1
-10 -6 20 -5 25 -10 15 -13 -42 -15 -101 -28 -155 -33 -33 -3 -80 -10 -105
-15 -86 -19 -234 -40 -276 -40 -24 0 -45 -4 -48 -9 -3 -5 -29 -11 -58 -14 -29
-3 -84 -11 -123 -17 -79 -14 -171 -9 -205 11 -54 33 -90 73 -84 93 3 14 2 17
-3 8 -12 -15 -57 43 -47 60 4 6 3 8 -3 5 -6 -4 -26 13 -44 38 -19 25 -44 58
-57 73 -53 62 -74 93 -68 99 3 3 16 -2 28 -13 22 -19 23 -19 8 1 -22 29 -34
35 -42 22 -4 -6 -8 -9 -10 -7 -2 3 -31 41 -63 85 -33 44 -63 82 -66 85 -28 25
-108 143 -103 152 4 7 3 8 -4 4 -23 -14 -12 20 17 51 16 18 27 34 24 36 -2 3
-20 -11 -39 -31 -28 -31 -35 -35 -44 -22 -5 8 -8 21 -5 28 3 7 1 11 -4 7 -13
-7 -53 45 -47 61 3 7 0 11 -7 9 -17 -7 -98 129 -102 170 -4 44 20 60 100 68
451 45 509 50 730 66 94 7 179 17 190 22 24 11 165 17 258 12 45 -2 77 -9 92
-21z m-5447 -59 c11 -22 25 -293 14 -293 -4 -1 -26 -5 -49 -9 -23 -4 -46 -5
-51 -2 -5 3 -12 70 -14 148 -5 136 -4 143 16 157 29 21 73 20 84 -1z m710 -76
c68 -78 69 -108 2 -119 -25 -5 -51 -6 -57 -3 -14 5 -19 186 -5 184 4 0 31 -28
60 -62z m566 -198 c10 -98 7 -309 -4 -309 -5 0 -10 4 -10 9 0 5 -26 38 -57 73
-168 188 -219 248 -209 248 3 0 8 1 11 2 7 3 227 36 246 37 13 1 18 -13 23
-60z m-381 -19 c8 -11 32 -40 53 -63 22 -23 80 -89 129 -147 50 -58 95 -110
100 -116 63 -69 75 -84 73 -85 -11 -2 -104 -10 -223 -19 -77 -6 -192 -15 -255
-20 -63 -6 -200 -17 -305 -26 -104 -8 -239 -20 -300 -24 -390 -33 -494 -41
-614 -50 -74 -6 -135 -9 -136 -8 -3 4 -25 306 -25 344 l0 31 163 23 c89 13
187 26 217 31 107 14 296 41 355 49 33 5 112 16 175 25 63 9 144 21 180 26 36
5 119 16 185 24 65 9 121 18 124 20 2 3 24 5 47 5 32 0 47 -5 57 -20z m7693
-384 c7 -30 -21 -246 -56 -426 -17 -89 -40 -226 -46 -275 -3 -27 -9 -59 -14
-70 -4 -11 -15 -74 -25 -140 -9 -66 -21 -128 -26 -137 -5 -10 -9 -37 -9 -60
-1 -43 -1 -43 -19 -21 -10 12 -22 18 -27 13 -5 -4 -18 -10 -29 -12 -19 -5 -19
-5 -1 -13 12 -5 21 -3 27 6 7 11 11 10 23 -6 20 -26 20 -29 -4 -50 -11 -10
-20 -15 -20 -11 0 4 -12 1 -27 -7 -16 -8 -53 -22 -83 -30 -30 -9 -77 -23 -103
-32 -26 -8 -59 -15 -72 -15 -14 0 -25 -4 -25 -10 0 -5 -9 -10 -20 -10 -10 0
-29 -4 -42 -9 -13 -4 -50 -16 -83 -26 -33 -9 -69 -21 -80 -25 -11 -4 -49 -16
-85 -25 -36 -9 -74 -21 -85 -25 -25 -9 -106 -34 -165 -50 -25 -7 -56 -16 -70
-20 -14 -5 -52 -16 -85 -25 -33 -9 -72 -21 -87 -27 -14 -5 -37 -7 -50 -4 -13
3 -17 3 -9 0 9 -4 0 -11 -25 -19 -72 -24 -268 -82 -334 -100 -36 -9 -74 -21
-85 -26 -11 -5 -54 -18 -95 -30 -150 -42 -236 -67 -282 -83 -25 -9 -54 -13
-64 -9 -12 4 -15 3 -10 -5 5 -8 -2 -12 -23 -12 -16 0 -33 -4 -36 -10 -3 -5
-17 -10 -30 -10 -13 0 -27 -5 -31 -11 -4 -7 -21 -9 -43 -5 -25 4 -31 2 -21 -4
12 -8 11 -10 -7 -10 -12 0 -24 -4 -27 -9 -3 -5 -18 -11 -33 -14 -28 -5 -58
-14 -148 -41 -87 -26 -217 -64 -295 -86 -41 -12 -82 -24 -90 -27 -38 -16 -105
-30 -117 -26 -7 3 -13 1 -13 -4 0 -9 -72 -33 -210 -70 -30 -8 -62 -19 -71 -23
-9 -5 -38 -12 -65 -16 -27 -4 -51 -10 -54 -14 -3 -5 -23 -10 -45 -11 l-40 -4
4 735 c1 427 7 739 12 744 5 6 9 21 9 33 0 22 21 64 45 89 29 31 81 47 220 71
153 25 189 31 215 37 14 3 79 15 145 25 240 39 371 61 420 71 28 5 91 16 140
24 50 8 104 18 120 21 17 4 57 10 90 15 33 5 98 16 145 25 47 9 112 21 145 26
33 5 83 13 110 17 28 5 86 14 130 21 44 7 96 17 115 21 19 5 85 16 145 25 61
9 127 20 147 26 21 5 74 12 118 16 44 3 83 10 86 15 3 4 19 8 36 8 18 0 45 4
62 9 17 6 78 17 136 26 137 21 220 35 245 41 53 13 216 36 262 38 28 0 49 4
47 8 -2 3 29 11 68 17 40 6 96 16 123 21 128 25 143 25 151 -4z m32 -1125 c89
-19 96 -44 62 -241 -11 -63 -25 -151 -31 -195 -6 -44 -17 -90 -25 -102 -8 -12
-14 -34 -14 -49 0 -38 -47 -76 -121 -98 -105 -31 -272 -87 -296 -98 -11 -6
-42 -11 -67 -12 -32 -1 -45 -5 -41 -13 2 -7 -3 -13 -12 -13 -15 0 -130 -37
-188 -60 -11 -4 -81 -26 -155 -50 -74 -23 -143 -46 -152 -51 -10 -5 -19 -9
-20 -9 -2 0 0 82 5 181 8 211 2 240 -66 273 -36 17 -42 17 -95 3 -55 -15 -369
-107 -562 -166 -52 -16 -127 -39 -167 -51 -97 -29 -157 -81 -177 -153 -8 -29
-17 -92 -21 -142 -3 -49 -11 -108 -16 -130 -6 -22 -13 -71 -17 -109 l-7 -69
-105 -34 c-58 -19 -112 -36 -120 -38 -15 -3 -95 -30 -135 -45 -114 -43 -398
-129 -407 -124 -7 4 -8 3 -4 -4 5 -8 -1 -12 -16 -12 -13 0 -28 -4 -33 -8 -19
-16 -125 -44 -152 -39 -16 2 -22 2 -15 0 17 -6 15 -23 -3 -23 -14 0 -249 -73
-290 -91 -20 -8 -126 -43 -215 -70 -56 -17 -191 -18 -245 -2 -46 14 -233 58
-287 67 -66 12 -68 20 -67 296 1 274 7 313 52 318 15 2 90 -13 167 -32 197
-50 295 -48 508 10 31 9 71 19 87 24 17 4 134 38 260 75 127 37 244 71 260 75
17 5 71 20 120 35 50 14 113 32 140 40 28 7 70 20 95 28 25 8 70 22 100 30
436 127 720 210 740 217 14 4 50 15 80 24 30 8 87 25 125 37 39 11 84 25 100
29 29 8 350 105 585 176 63 20 131 40 150 45 100 28 488 157 518 173 47 24 80
71 88 124 8 55 20 74 43 68 9 -3 35 -10 59 -15z m-10174 -162 c3 -17 6 -51 6
-74 0 -23 6 -47 13 -52 14 -11 85 -27 222 -49 116 -18 132 -25 141 -61 11 -43
-4 -255 -18 -265 -10 -6 -10 -8 0 -8 20 0 15 -68 -7 -79 -21 -12 -101 1 -341
54 -41 9 -93 20 -115 24 -54 10 -84 28 -95 56 -16 42 -24 327 -11 368 14 43
55 74 126 99 68 23 72 23 79 -13z m1250 -228 c62 -53 126 -300 126 -488 0
-117 -31 -293 -51 -293 -5 0 -9 -5 -9 -10 0 -6 -10 -26 -22 -45 -24 -37 -57
-47 -59 -17 -1 16 -2 16 -6 0 -10 -40 -46 -7 -83 77 -61 134 -89 337 -71 500
16 141 44 230 86 272 35 35 52 36 89 4z m7754 -387 c-26 -320 -21 -292 -64
-334 -36 -36 -65 -48 -379 -153 -379 -127 -403 -133 -429 -114 -17 13 -18 21
-8 113 6 54 17 152 23 218 15 147 27 164 126 191 37 10 100 28 138 40 39 12
97 30 130 40 33 9 96 28 140 42 44 13 118 35 165 49 47 15 96 30 110 34 19 6
29 3 40 -10 13 -14 14 -33 8 -116z m-4004 -157 c49 -51 85 -122 120 -237 45
-150 59 -259 60 -465 0 -204 -18 -345 -55 -415 -10 -19 -24 -47 -31 -62 -7
-16 -16 -28 -20 -28 -4 0 -8 -6 -8 -13 0 -7 -13 -26 -29 -42 -26 -24 -36 -27
-67 -22 -20 4 -47 16 -60 28 -57 53 -125 228 -160 414 -25 130 -25 468 0 580
32 146 63 218 114 273 44 47 84 44 136 -11z"/>
<path d="M6567 7523 c-4 -3 -7 -13 -7 -20 0 -12 3 -12 15 1 8 8 15 17 15 20 0
8 -15 7 -23 -1z"/>
<path d="M6556 7442 c-2 -4 -1 -14 5 -22 7 -12 9 -10 9 8 0 23 -5 28 -14 14z"/>
<path d="M7988 7443 c17 -2 47 -2 65 0 17 2 3 4 -33 4 -36 0 -50 -2 -32 -4z"/>
<path d="M8238 7433 c12 -2 30 -2 40 0 9 3 -1 5 -23 4 -22 0 -30 -2 -17 -4z"/>
<path d="M8730 7390 c20 -13 40 -13 40 0 0 6 -12 10 -27 10 -22 0 -25 -2 -13
-10z"/>
<path d="M7963 7383 c9 -2 23 -2 30 0 6 3 -1 5 -18 5 -16 0 -22 -2 -12 -5z"/>
<path d="M8358 7383 c6 -2 18 -2 25 0 6 3 1 5 -13 5 -14 0 -19 -2 -12 -5z"/>
<path d="M6572 7359 c-7 -12 -11 -24 -7 -27 7 -8 25 17 25 36 0 17 -3 15 -18
-9z"/>
<path d="M8248 7363 c7 -3 16 -2 19 1 4 3 -2 6 -13 5 -11 0 -14 -3 -6 -6z"/>
<path d="M9248 7363 c6 -2 18 -2 25 0 6 3 1 5 -13 5 -14 0 -19 -2 -12 -5z"/>
<path d="M9840 7332 c0 -5 11 -12 25 -15 16 -3 24 0 22 7 -4 14 -47 21 -47 8z"/>
<path d="M6580 7295 c0 -8 2 -15 4 -15 2 0 6 7 10 15 3 8 1 15 -4 15 -6 0 -10
-7 -10 -15z"/>
<path d="M9950 7300 c0 -5 5 -10 10 -10 6 0 10 5 10 10 0 6 -4 10 -10 10 -5 0
-10 -4 -10 -10z"/>
<path d="M9990 7300 c0 -5 5 -10 10 -10 6 0 10 5 10 10 0 6 -4 10 -10 10 -5 0
-10 -4 -10 -10z"/>
<path d="M10020 7280 c0 -5 5 -10 10 -10 6 0 10 5 10 10 0 6 -4 10 -10 10 -5
0 -10 -4 -10 -10z"/>
<path d="M9997 7246 c-4 -10 -1 -13 9 -9 15 6 19 23 5 23 -5 0 -11 -7 -14 -14z"/>
<path d="M10010 7111 c0 -6 5 -13 10 -16 6 -3 10 1 10 9 0 9 -4 16 -10 16 -5
0 -10 -4 -10 -9z"/>
<path d="M10091 7094 c0 -11 3 -14 6 -6 3 7 2 16 -1 19 -3 4 -6 -2 -5 -13z"/>
<path d="M8258 7083 c7 -3 16 -2 19 1 4 3 -2 6 -13 5 -11 0 -14 -3 -6 -6z"/>
<path d="M6775 7060 c3 -5 8 -10 11 -10 2 0 4 5 4 10 0 6 -5 10 -11 10 -5 0
-7 -4 -4 -10z"/>
<path d="M8460 7054 c0 -8 5 -12 10 -9 6 3 10 10 10 16 0 5 -4 9 -10 9 -5 0
-10 -7 -10 -16z"/>
<path d="M8663 7063 c9 -2 23 -2 30 0 6 3 -1 5 -18 5 -16 0 -22 -2 -12 -5z"/>
<path d="M8787 7063 c18 -2 50 -2 70 0 21 2 7 4 -32 4 -38 0 -55 -2 -38 -4z"/>
<path d="M9255 7063 c22 -3 45 -9 52 -15 9 -7 13 -7 13 0 0 14 -26 22 -68 20
l-37 -1 40 -4z"/>
<path d="M6652 7035 c0 -16 2 -22 5 -12 2 9 2 23 0 30 -3 6 -5 -1 -5 -18z"/>
<path d="M9654 7048 c-3 -4 6 -8 20 -8 14 0 26 4 26 8 0 4 -9 8 -21 8 -11 0
-23 -4 -25 -8z"/>
<path d="M9884 7044 c-18 -15 -18 -15 6 -10 14 3 31 6 38 6 6 0 12 5 12 10 0
15 -34 12 -56 -6z"/>
<path d="M6761 7036 c-1 -12 -6 -16 -15 -13 -10 4 -13 1 -9 -9 5 -14 7 -14 21
-1 8 8 12 21 9 29 -4 8 -6 7 -6 -6z"/>
<path d="M9805 7040 c-18 -8 -17 -9 8 -9 16 -1 26 3 22 9 -3 6 -7 10 -8 9 -1
0 -11 -4 -22 -9z"/>
<path d="M8650 7031 c0 -5 -7 -17 -16 -26 -9 -9 -14 -19 -10 -22 8 -9 47 38
40 48 -7 12 -14 11 -14 0z"/>
<path d="M10095 7020 c-3 -5 1 -10 9 -10 9 0 16 5 16 10 0 6 -4 10 -9 10 -6 0
-13 -4 -16 -10z"/>
<path d="M10003 7004 c30 -16 44 -14 32 5 -3 6 -18 11 -33 11 l-27 -1 28 -15z"/>
<path d="M8612 6950 c0 -14 2 -19 5 -12 2 6 2 18 0 25 -3 6 -5 1 -5 -13z"/>
<path d="M8550 6928 c0 -19 2 -20 10 -8 13 19 13 30 0 30 -5 0 -10 -10 -10
-22z"/>
<path d="M10090 6931 c0 -6 5 -13 10 -16 6 -3 10 1 10 9 0 9 -4 16 -10 16 -5
0 -10 -4 -10 -9z"/>
<path d="M6690 6905 c0 -8 5 -15 10 -15 6 0 10 7 10 15 0 8 -4 15 -10 15 -5 0
-10 -7 -10 -15z"/>
<path d="M8570 6883 c0 -10 5 -25 10 -33 7 -11 10 -7 10 18 0 17 -4 32 -10 32
-5 0 -10 -8 -10 -17z"/>
<path d="M10126 6855 c4 -8 7 -15 9 -15 2 0 5 7 9 15 3 9 0 15 -9 15 -9 0 -12
-6 -9 -15z"/>
<path d="M6704 6846 c-3 -8 -1 -23 5 -33 9 -15 10 -13 11 15 0 34 -7 42 -16
18z"/>
<path d="M10161 6834 c0 -11 3 -14 6 -6 3 7 2 16 -1 19 -3 4 -6 -2 -5 -13z"/>
<path d="M6761 6804 c0 -11 3 -14 6 -6 3 7 2 16 -1 19 -3 4 -6 -2 -5 -13z"/>
<path d="M10132 6785 c0 -16 2 -22 5 -12 2 9 2 23 0 30 -3 6 -5 -1 -5 -18z"/>
<path d="M6725 6770 c-4 -6 -3 -16 3 -22 6 -6 12 -6 17 2 4 6 3 16 -3 22 -6 6
-12 6 -17 -2z"/>
<path d="M8602 6750 c0 -14 2 -19 5 -12 2 6 2 18 0 25 -3 6 -5 1 -5 -13z"/>
<path d="M10180 6753 c0 -11 7 -28 15 -39 8 -10 15 -28 15 -38 0 -11 3 -16 6
-13 8 8 -15 95 -27 103 -5 3 -9 -3 -9 -13z"/>
<path d="M8631 6734 c0 -11 3 -14 6 -6 3 7 2 16 -1 19 -3 4 -6 -2 -5 -13z"/>
<path d="M6790 6692 c0 -18 5 -32 10 -32 6 0 8 11 4 28 -10 39 -14 40 -14 4z"/>
<path d="M8662 6670 c0 -14 2 -19 5 -12 2 6 2 18 0 25 -3 6 -5 1 -5 -13z"/>
<path d="M10201 6636 c-8 -10 -9 -16 -1 -21 5 -3 13 1 16 10 9 22 -1 29 -15
11z"/>
<path d="M8657 6623 c-4 -3 -7 -16 -6 -27 0 -19 1 -19 10 3 10 24 8 36 -4 24z"/>
<path d="M6832 6550 c0 -14 2 -19 5 -12 2 6 2 18 0 25 -3 6 -5 1 -5 -13z"/>
<path d="M10230 6561 c0 -6 4 -13 10 -16 6 -3 7 1 4 9 -7 18 -14 21 -14 7z"/>
<path d="M8686 6519 c-3 -17 -6 -39 -6 -48 1 -14 2 -14 9 -1 15 25 23 80 13
80 -5 0 -12 -14 -16 -31z"/>
<path d="M10261 6469 c-1 -19 6 -44 14 -55 14 -18 15 -17 9 11 -4 17 -11 41
-15 55 -6 22 -7 21 -8 -11z"/>
<path d="M8711 6474 c0 -11 3 -14 6 -6 3 7 2 16 -1 19 -3 4 -6 -2 -5 -13z"/>
<path d="M8702 6390 c0 -14 2 -19 5 -12 2 6 2 18 0 25 -3 6 -5 1 -5 -13z"/>
<path d="M10231 6394 c0 -11 3 -14 6 -6 3 7 2 16 -1 19 -3 4 -6 -2 -5 -13z"/>
<path d="M8751 6354 c0 -11 3 -14 6 -6 3 7 2 16 -1 19 -3 4 -6 -2 -5 -13z"/>
<path d="M10268 6322 c-3 -9 -2 -26 2 -37 6 -17 7 -17 13 6 4 13 7 30 7 37 0
18 -17 14 -22 -6z"/>
<path d="M6831 6294 c0 -11 3 -14 6 -6 3 7 2 16 -1 19 -3 4 -6 -2 -5 -13z"/>
<path d="M6911 6264 c0 -11 3 -14 6 -6 3 7 2 16 -1 19 -3 4 -6 -2 -5 -13z"/>
<path d="M10282 6220 c0 -14 2 -19 5 -12 2 6 2 18 0 25 -3 6 -5 1 -5 -13z"/>
<path d="M6850 6219 c0 -5 5 -7 10 -4 6 3 10 8 10 11 0 2 -4 4 -10 4 -5 0 -10
-5 -10 -11z"/>
<path d="M10335 6200 c3 -19 10 -39 16 -45 7 -7 8 -1 3 20 -11 46 -26 67 -19
25z"/>
<path d="M6910 6204 c0 -8 5 -12 10 -9 6 3 10 10 10 16 0 5 -4 9 -10 9 -5 0
-10 -7 -10 -16z"/>
<path d="M8760 6191 c0 -11 5 -23 10 -26 6 -4 10 5 10 19 0 14 -4 26 -10 26
-5 0 -10 -9 -10 -19z"/>
<path d="M6882 6115 c0 -16 2 -22 5 -12 2 9 2 23 0 30 -3 6 -5 -1 -5 -18z"/>
<path d="M6922 6120 c0 -14 2 -19 5 -12 2 6 2 18 0 25 -3 6 -5 1 -5 -13z"/>
<path d="M10361 6124 c0 -11 3 -14 6 -6 3 7 2 16 -1 19 -3 4 -6 -2 -5 -13z"/>
<path d="M8782 6099 c1 -13 8 -23 13 -21 15 3 12 35 -3 40 -9 3 -13 -3 -10
-19z"/>
<path d="M10332 6100 c0 -14 2 -19 5 -12 2 6 2 18 0 25 -3 6 -5 1 -5 -13z"/>
<path d="M10352 6060 c0 -14 2 -19 5 -12 2 6 2 18 0 25 -3 6 -5 1 -5 -13z"/>
<path d="M10378 6040 c-6 -16 12 -50 27 -50 4 0 3 6 -3 13 -5 6 -12 21 -14 32
-3 16 -5 17 -10 5z"/>
<path d="M6981 6028 c-1 -9 -6 -18 -12 -20 -7 -2 -10 -11 -7 -18 3 -11 8 -9
17 8 7 13 10 28 7 35 -2 7 -5 5 -5 -5z"/>
<path d="M8830 6025 c0 -12 4 -25 9 -30 5 -6 11 -19 14 -30 4 -19 5 -19 6 1 0
12 -6 35 -14 50 -12 24 -15 26 -15 9z"/>
<path d="M6901 6014 c0 -11 3 -14 6 -6 3 7 2 16 -1 19 -3 4 -6 -2 -5 -13z"/>
<path d="M10330 6002 c0 -18 4 -32 9 -32 5 0 12 -10 14 -22 3 -13 3 -3 2 20
-3 53 -25 83 -25 34z"/>
<path d="M8822 5940 c0 -14 2 -19 5 -12 2 6 2 18 0 25 -3 6 -5 1 -5 -13z"/>
<path d="M10394 5939 c-3 -6 -1 -16 5 -22 8 -8 11 -5 11 11 0 24 -5 28 -16 11z"/>
<path d="M7008 5904 c-5 -4 -8 -23 -8 -43 1 -30 2 -33 11 -18 11 19 8 73 -3
61z"/>
<path d="M8847 5893 c-4 -7 -3 -21 3 -32 5 -11 10 -29 10 -40 0 -12 5 -21 10
-21 6 0 10 11 10 25 0 14 -4 25 -9 25 -5 0 -11 12 -13 28 -2 17 -6 23 -11 15z"/>
<path d="M10372 5880 c0 -14 2 -19 5 -12 2 6 2 18 0 25 -3 6 -5 1 -5 -13z"/>
<path d="M6950 5848 c0 -15 5 -30 10 -33 13 -8 13 25 0 45 -8 12 -10 9 -10
-12z"/>
<path d="M10436 5801 c-4 -7 -5 -15 -2 -18 9 -9 19 4 14 18 -4 11 -6 11 -12 0z"/>
<path d="M7030 5771 c0 -12 5 -21 10 -21 6 0 10 6 10 14 0 8 -4 18 -10 21 -5
3 -10 -3 -10 -14z"/>
<path d="M8896 5759 c3 -6 0 -16 -7 -21 -12 -8 -11 -9 1 -5 18 4 27 37 10 37
-6 0 -8 -5 -4 -11z"/>
<path d="M6975 5750 c3 -5 8 -10 11 -10 2 0 4 5 4 10 0 6 -5 10 -11 10 -5 0
-7 -4 -4 -10z"/>
<path d="M10414 5736 c-2 -30 30 -51 46 -31 15 18 5 49 -12 39 -9 -6 -9 -9 0
-12 17 -5 15 -22 -3 -22 -8 0 -15 9 -15 19 0 28 -15 34 -16 7z"/>
<path d="M7050 5680 c0 -8 9 -26 20 -40 13 -17 20 -20 20 -10 0 8 -9 26 -20
40 -13 17 -20 20 -20 10z"/>
<path d="M8887 5673 c-4 -6 -3 -14 3 -18 5 -3 10 -20 10 -37 0 -38 5 -34 13
10 4 19 3 31 -2 27 -5 -3 -11 3 -13 12 -2 12 -6 14 -11 6z"/>
<path d="M7021 5594 c0 -11 3 -14 6 -6 3 7 2 16 -1 19 -3 4 -6 -2 -5 -13z"/>
<path d="M8920 5562 c0 -18 5 -32 10 -32 6 0 8 11 4 28 -10 39 -14 40 -14 4z"/>
<path d="M7032 5550 c0 -14 2 -19 5 -12 2 6 2 18 0 25 -3 6 -5 1 -5 -13z"/>
<path d="M7111 5514 c0 -11 3 -14 6 -6 3 7 2 16 -1 19 -3 4 -6 -2 -5 -13z"/>
<path d="M8951 5504 c0 -11 3 -14 6 -6 3 7 2 16 -1 19 -3 4 -6 -2 -5 -13z"/>
<path d="M7050 5479 c0 -5 5 -7 10 -4 6 3 10 8 10 11 0 2 -4 4 -10 4 -5 0 -10
-5 -10 -11z"/>
<path d="M7100 5456 c0 -9 8 -16 20 -16 11 0 20 5 20 12 0 6 -3 8 -7 5 -3 -4
-12 -2 -20 4 -10 9 -13 8 -13 -5z"/>
<path d="M7065 5440 c10 -11 20 -18 23 -15 7 6 -18 35 -31 35 -5 0 -2 -9 8
-20z"/>
<path d="M7108 5413 c7 -3 16 -2 19 1 4 3 -2 6 -13 5 -11 0 -14 -3 -6 -6z"/>
<path d="M6155 6980 c-11 -5 -81 -27 -155 -50 -141 -44 -497 -155 -540 -170
-14 -4 -97 -31 -185 -58 -450 -142 -442 -138 -485 -230 -21 -44 -22 -52 -11
-147 11 -106 13 -131 37 -480 27 -396 32 -458 43 -590 19 -220 43 -281 117
-305 38 -13 134 -9 244 10 30 5 109 16 175 25 66 9 149 20 185 25 36 5 121 17
190 25 69 9 152 20 185 25 33 5 114 16 180 25 66 8 149 19 185 25 36 5 97 14
135 19 39 6 95 14 125 17 74 9 135 39 160 79 22 35 27 107 10 159 -5 17 -20
78 -34 136 -14 58 -52 215 -85 350 -93 381 -136 561 -180 745 -23 94 -45 184
-51 201 -5 17 -10 36 -10 42 0 28 -53 93 -90 112 -40 21 -109 25 -145 10z
m109 -119 c10 -10 26 -57 37 -102 59 -246 133 -550 149 -609 5 -19 21 -84 35
-145 14 -60 30 -126 35 -145 5 -19 28 -111 50 -205 39 -165 47 -195 69 -281 6
-23 11 -53 11 -68 0 -32 -24 -43 -125 -57 -80 -10 -269 -36 -365 -49 -126 -18
-296 -41 -365 -50 -38 -5 -122 -16 -185 -25 -63 -9 -149 -20 -190 -26 -41 -5
-104 -14 -140 -18 -248 -34 -258 -35 -273 -23 -22 19 -39 165 -68 592 -6 85
-14 209 -19 275 -27 383 -32 485 -26 509 8 33 29 42 206 96 74 23 180 56 235
75 55 18 161 52 235 75 74 23 160 50 190 60 62 20 299 94 375 117 28 8 55 16
60 18 27 9 54 3 69 -14z"/>
<path d="M10488 5473 c7 -3 16 -2 19 1 4 3 -2 6 -13 5 -11 0 -14 -3 -6 -6z"/>
<path d="M10645 5420 c3 -5 8 -10 11 -10 2 0 4 5 4 10 0 6 -5 10 -11 10 -5 0
-7 -4 -4 -10z"/>
<path d="M9805 5410 c3 -5 8 -10 11 -10 2 0 4 5 4 10 0 6 -5 10 -11 10 -5 0
-7 -4 -4 -10z"/>
<path d="M9847 5409 c8 -8 19 -8 40 -1 28 10 28 10 -11 11 -29 1 -37 -2 -29
-10z"/>
<path d="M10665 5400 c-3 -5 -1 -10 4 -10 6 0 11 5 11 10 0 6 -2 10 -4 10 -3
0 -8 -4 -11 -10z"/>
<path d="M10705 5389 c-11 -16 -1 -19 13 -3 7 8 8 14 3 14 -5 0 -13 -5 -16
-11z"/>
<path d="M10757 5369 c7 -7 15 -10 18 -7 3 3 -2 9 -12 12 -14 6 -15 5 -6 -5z"/>
<path d="M10728 5343 c7 -3 16 -2 19 1 4 3 -2 6 -13 5 -11 0 -14 -3 -6 -6z"/>
<path d="M9906 5326 c3 -9 11 -16 16 -16 13 0 5 23 -10 28 -7 2 -10 -2 -6 -12z"/>
<path d="M10055 5330 c-3 -5 -2 -10 4 -10 5 0 13 5 16 10 3 6 2 10 -4 10 -5 0
-13 -4 -16 -10z"/>
<path d="M10800 5332 c0 -4 9 -13 20 -20 23 -14 26 -7 6 14 -16 15 -26 18 -26
6z"/>
<path d="M9950 5293 c8 -3 18 -11 22 -17 4 -6 10 -7 15 -3 9 10 -16 27 -37 26
-13 -1 -13 -1 0 -6z"/>
<path d="M10840 5290 c-8 -5 -11 -12 -7 -16 4 -4 13 -2 19 4 15 15 7 24 -12
12z"/>
<path d="M10046 5281 c-3 -5 1 -12 10 -15 20 -8 29 -1 19 13 -8 13 -22 14 -29
2z"/>
<path d="M10000 5260 c0 -5 7 -10 15 -10 8 0 15 5 15 10 0 6 -7 10 -15 10 -8
0 -15 -4 -15 -10z"/>
<path d="M10101 5234 c0 -11 3 -14 6 -6 3 7 2 16 -1 19 -3 4 -6 -2 -5 -13z"/>
<path d="M10040 5233 c0 -5 12 -16 25 -26 22 -15 25 -16 25 -2 0 8 -7 15 -15
15 -8 0 -15 5 -15 10 0 6 -4 10 -10 10 -5 0 -10 -3 -10 -7z"/>
<path d="M10880 5230 c0 -5 5 -10 11 -10 5 0 7 5 4 10 -3 6 -8 10 -11 10 -2 0
-4 -4 -4 -10z"/>
<path d="M10800 5210 c0 -5 5 -10 10 -10 6 0 10 5 10 10 0 6 -4 10 -10 10 -5
0 -10 -4 -10 -10z"/>
<path d="M10130 5190 c0 -8 94 -70 107 -70 11 0 -43 44 -76 62 -17 9 -31 13
-31 8z"/>
<path d="M10970 5182 c0 -12 44 -52 58 -52 7 0 12 5 12 10 0 6 -7 10 -15 10
-8 0 -19 9 -25 20 -11 20 -30 27 -30 12z"/>
<path d="M10160 5130 c0 -5 5 -10 11 -10 5 0 7 5 4 10 -3 6 -8 10 -11 10 -2 0
-4 -4 -4 -10z"/>
<path d="M10940 5130 c0 -5 5 -10 10 -10 6 0 10 5 10 10 0 6 -4 10 -10 10 -5
0 -10 -4 -10 -10z"/>
<path d="M11020 5090 c0 -5 7 -7 15 -4 8 4 15 8 15 10 0 2 -7 4 -15 4 -8 0
-15 -4 -15 -10z"/>
<path d="M10270 5065 c0 -2 9 -9 20 -15 16 -9 18 -8 14 5 -5 13 -34 22 -34 10z"/>
<path d="M10336 5009 c12 -13 20 -16 22 -9 3 7 -2 16 -9 21 -25 16 -32 9 -13
-12z"/>
<path d="M11210 5000 c8 -5 20 -10 25 -10 6 0 3 5 -5 10 -8 5 -19 10 -25 10
-5 0 -3 -5 5 -10z"/>
<path d="M10395 4990 c3 -5 10 -10 16 -10 5 0 9 5 9 10 0 6 -7 10 -16 10 -8 0
-12 -4 -9 -10z"/>
<path d="M11231 4971 c-12 -8 -12 -12 3 -26 9 -10 20 -14 24 -11 3 4 0 11 -8
17 -13 8 -13 10 0 19 8 5 11 10 5 10 -5 0 -16 -4 -24 -9z"/>
<path d="M10470 4919 c0 -5 5 -7 10 -4 6 3 10 8 10 11 0 2 -4 4 -10 4 -5 0
-10 -5 -10 -11z"/>
<path d="M10562 4858 c3 -7 13 -15 24 -17 16 -3 17 -1 5 13 -16 19 -34 21 -29
4z"/>
<path d="M11385 4850 c3 -5 8 -10 11 -10 2 0 4 5 4 10 0 6 -5 10 -11 10 -5 0
-7 -4 -4 -10z"/>
<path d="M10620 4825 c-14 -16 -10 -18 14 -9 9 3 16 10 16 15 0 14 -16 11 -30
-6z"/>
<path d="M11453 4804 c15 -5 16 -8 5 -21 -11 -14 -11 -15 2 -11 22 7 18 32 -5
35 -17 1 -17 1 -2 -3z"/>
<path d="M10715 4770 c-3 -5 -1 -10 4 -10 6 0 11 5 11 10 0 6 -2 10 -4 10 -3
0 -8 -4 -11 -10z"/>
<path d="M10670 4760 c0 -5 5 -10 11 -10 5 0 7 5 4 10 -3 6 -8 10 -11 10 -2 0
-4 -4 -4 -10z"/>
<path d="M11485 4754 c-10 -8 -15 -17 -11 -21 4 -4 11 -2 15 6 7 11 12 11 30
0 11 -8 21 -17 21 -21 0 -5 7 -8 15 -8 8 0 15 5 15 10 0 6 -7 10 -15 10 -8 0
-15 3 -15 8 0 4 -8 12 -18 18 -14 9 -22 8 -37 -2z"/>
<path d="M11483 4703 c-7 -2 -13 -8 -13 -13 0 -10 38 -1 46 11 6 10 -13 11
-33 2z"/>
<path d="M10850 4640 c0 -5 7 -10 15 -10 8 0 15 5 15 10 0 6 -7 10 -15 10 -8
0 -15 -4 -15 -10z"/>
<path d="M10897 4637 c-4 -10 3 -12 24 -9 16 2 29 8 29 13 0 14 -47 10 -53 -4z"/>
<path d="M11155 4640 c3 -5 10 -10 16 -10 5 0 9 5 9 10 0 6 -7 10 -16 10 -8 0
-12 -4 -9 -10z"/>
<path d="M11228 4643 c6 -2 18 -2 25 0 6 3 1 5 -13 5 -14 0 -19 -2 -12 -5z"/>
<path d="M11073 4623 c9 -2 25 -2 35 0 9 3 1 5 -18 5 -19 0 -27 -2 -17 -5z"/>
<path d="M11018 4603 c7 -3 16 -2 19 1 4 3 -2 6 -13 5 -11 0 -14 -3 -6 -6z"/>
<path d="M9498 5363 c7 -3 16 -2 19 1 4 3 -2 6 -13 5 -11 0 -14 -3 -6 -6z"/>
<path d="M9438 5343 c7 -3 16 -2 19 1 4 3 -2 6 -13 5 -11 0 -14 -3 -6 -6z"/>
<path d="M8805 5300 c-3 -5 -2 -10 4 -10 5 0 13 5 16 10 3 6 2 10 -4 10 -5 0
-13 -4 -16 -10z"/>
<path d="M8750 5269 c0 -5 5 -7 10 -4 6 3 10 8 10 11 0 2 -4 4 -10 4 -5 0 -10
-5 -10 -11z"/>
<path d="M9855 5180 c-3 -5 -1 -10 4 -10 6 0 11 5 11 10 0 6 -2 10 -4 10 -3 0
-8 -4 -11 -10z"/>
<path d="M8782 5151 c2 -14 9 -26 16 -29 17 -5 15 10 -3 34 -15 18 -15 18 -13
-5z"/>
<path d="M9880 5159 c0 -5 5 -7 10 -4 6 3 10 8 10 11 0 2 -4 4 -10 4 -5 0 -10
-5 -10 -11z"/>
<path d="M9915 5100 c-3 -5 1 -10 9 -10 9 0 16 5 16 10 0 6 -4 10 -9 10 -6 0
-13 -4 -16 -10z"/>
<path d="M8810 5086 c0 -7 8 -20 17 -27 15 -12 16 -12 10 4 -4 10 -7 23 -7 28
0 5 -4 9 -10 9 -5 0 -10 -6 -10 -14z"/>
<path d="M9955 5080 c-3 -5 -2 -10 4 -10 5 0 13 5 16 10 3 6 2 10 -4 10 -5 0
-13 -4 -16 -10z"/>
<path d="M9992 5069 c2 -7 10 -15 17 -17 8 -3 12 1 9 9 -2 7 -10 15 -17 17 -8
3 -12 -1 -9 -9z"/>
<path d="M10005 5020 c3 -5 8 -10 11 -10 2 0 4 5 4 10 0 6 -5 10 -11 10 -5 0
-7 -4 -4 -10z"/>
<path d="M10044 5005 c-15 -11 -16 -14 -3 -15 8 0 24 7 35 15 15 11 16 14 3
15 -8 0 -24 -7 -35 -15z"/>
<path d="M10090 4994 c0 -3 6 -12 14 -19 17 -17 30 -7 15 12 -12 13 -29 18
-29 7z"/>
<path d="M10000 4940 c0 -5 4 -10 9 -10 6 0 13 5 16 10 3 6 -1 10 -9 10 -9 0
-16 -4 -16 -10z"/>
<path d="M10130 4940 c0 -5 5 -10 10 -10 6 0 10 5 10 10 0 6 -4 10 -10 10 -5
0 -10 -4 -10 -10z"/>
<path d="M8880 4905 c0 -8 5 -15 10 -15 6 0 10 7 10 15 0 8 -4 15 -10 15 -5 0
-10 -7 -10 -15z"/>
<path d="M10253 4883 c-18 -6 -16 -23 1 -23 17 0 30 16 19 23 -5 2 -14 2 -20
0z"/>
<path d="M10290 4840 c0 -5 7 -10 15 -10 8 0 15 5 15 10 0 6 -7 10 -15 10 -8
0 -15 -4 -15 -10z"/>
<path d="M10387 4779 c7 -7 15 -10 18 -7 3 3 -2 9 -12 12 -14 6 -15 5 -6 -5z"/>
<path d="M8960 4741 c0 -25 6 -27 13 -6 4 8 2 17 -3 20 -6 4 -10 -3 -10 -14z"/>
<path d="M10414 4716 c-9 -10 -6 -13 16 -13 23 0 26 3 15 14 -16 16 -17 16
-31 -1z"/>
<path d="M10470 4690 c0 -5 5 -10 10 -10 6 0 10 5 10 10 0 6 -4 10 -10 10 -5
0 -10 -4 -10 -10z"/>
<path d="M8990 4674 c0 -8 5 -12 10 -9 6 3 10 10 10 16 0 5 -4 9 -10 9 -5 0
-10 -7 -10 -16z"/>
<path d="M10505 4679 c-11 -17 1 -21 15 -4 8 9 8 15 2 15 -6 0 -14 -5 -17 -11z"/>
<path d="M10536 4663 c-3 -3 6 -12 21 -20 34 -17 41 -10 9 10 -13 9 -26 13
-30 10z"/>
<path d="M9021 4594 c0 -11 3 -14 6 -6 3 7 2 16 -1 19 -3 4 -6 -2 -5 -13z"/>
<path d="M10520 4575 c-7 -9 -11 -18 -8 -20 3 -3 11 1 18 10 7 9 11 18 8 20
-3 3 -11 -1 -18 -10z"/>
<path d="M9050 4496 c0 -9 5 -16 10 -16 6 0 10 4 10 9 0 6 -4 13 -10 16 -5 3
-10 -1 -10 -9z"/>
<path d="M9848 4503 c6 -2 18 -2 25 0 6 3 1 5 -13 5 -14 0 -19 -2 -12 -5z"/>
<path d="M10118 4503 c7 -3 16 -2 19 1 4 3 -2 6 -13 5 -11 0 -14 -3 -6 -6z"/>
<path d="M10170 4480 c-12 -8 -11 -10 7 -10 12 0 25 5 28 10 8 13 -15 13 -35
0z"/>
<path d="M9126 4452 c-4 -6 -2 -21 4 -33 15 -28 21 -20 12 16 -5 18 -11 25
-16 17z"/>
<path d="M10028 4453 c12 -2 30 -2 40 0 9 3 -1 5 -23 4 -22 0 -30 -2 -17 -4z"/>
<path d="M9853 4423 c9 -2 25 -2 35 0 9 3 1 5 -18 5 -19 0 -27 -2 -17 -5z"/>
<path d="M9106 4381 c-3 -5 1 -14 9 -21 13 -10 15 -9 15 9 0 21 -14 28 -24 12z"/>
<path d="M9278 4373 c7 -3 16 -2 19 1 4 3 -2 6 -13 5 -11 0 -14 -3 -6 -6z"/>
<path d="M9618 4373 c7 -3 16 -2 19 1 4 3 -2 6 -13 5 -11 0 -14 -3 -6 -6z"/>
<path d="M9208 4353 c6 -2 18 -2 25 0 6 3 1 5 -13 5 -14 0 -19 -2 -12 -5z"/>
<path d="M9418 4353 c7 -3 16 -2 19 1 4 3 -2 6 -13 5 -11 0 -14 -3 -6 -6z"/>
<path d="M9458 4353 c7 -3 16 -2 19 1 4 3 -2 6 -13 5 -11 0 -14 -3 -6 -6z"/>
<path d="M9355 4340 c-18 -8 -17 -9 8 -9 16 -1 26 3 22 9 -3 6 -7 10 -8 9 -1
0 -11 -4 -22 -9z"/>
<path d="M8291 5276 c12 -10 59 -15 59 -6 0 5 -14 10 -32 10 -17 0 -29 -2 -27
-4z"/>
<path d="M8408 5263 c12 -2 30 -2 40 0 9 3 -1 5 -23 4 -22 0 -30 -2 -17 -4z"/>
<path d="M8525 5261 c-3 -6 -3 -11 2 -11 4 0 2 -4 -6 -9 -9 -6 -11 -15 -6 -27
6 -16 9 -14 17 15 9 33 6 51 -7 32z"/>
<path d="M7928 5243 c7 -3 16 -2 19 1 4 3 -2 6 -13 5 -11 0 -14 -3 -6 -6z"/>
<path d="M8233 5243 c9 -2 23 -2 30 0 6 3 -1 5 -18 5 -16 0 -22 -2 -12 -5z"/>
<path d="M7815 5230 c-4 -6 8 -10 31 -10 40 0 39 12 -1 17 -13 2 -26 -1 -30
-7z"/>
<path d="M8560 5143 c0 -26 1 -26 14 -8 14 20 12 35 -5 35 -5 0 -9 -12 -9 -27z"/>
<path d="M7201 5124 c-20 -23 -9 -25 19 -4 16 13 20 20 10 19 -8 0 -21 -7 -29
-15z"/>
<path d="M8596 5121 c-4 -7 -5 -15 -2 -18 9 -9 19 4 14 18 -4 11 -6 11 -12 0z"/>
<path d="M7210 5080 c0 -5 5 -10 10 -10 6 0 10 5 10 10 0 6 -4 10 -10 10 -5 0
-10 -4 -10 -10z"/>
<path d="M8610 5080 c0 -5 5 -10 10 -10 6 0 10 5 10 10 0 6 -4 10 -10 10 -5 0
-10 -4 -10 -10z"/>
<path d="M8631 5014 c0 -11 3 -14 6 -6 3 7 2 16 -1 19 -3 4 -6 -2 -5 -13z"/>
<path d="M8640 4931 c0 -6 5 -13 10 -16 6 -3 10 1 10 9 0 9 -4 16 -10 16 -5 0
-10 -4 -10 -9z"/>
<path d="M8676 4874 c-9 -23 -2 -28 13 -10 7 8 8 17 3 20 -6 3 -13 -1 -16 -10z"/>
<path d="M7450 4780 c0 -5 5 -10 11 -10 5 0 7 5 4 10 -3 6 -8 10 -11 10 -2 0
-4 -4 -4 -10z"/>
<path d="M7515 4770 c3 -5 8 -10 11 -10 2 0 4 5 4 10 0 6 -5 10 -11 10 -5 0
-7 -4 -4 -10z"/>
<path d="M7430 4750 c0 -5 5 -10 10 -10 6 0 10 5 10 10 0 6 -4 10 -10 10 -5 0
-10 -4 -10 -10z"/>
<path d="M7504 4723 c14 -15 28 -24 31 -21 7 7 -34 48 -47 48 -5 0 2 -12 16
-27z"/>
<path d="M7571 4654 c0 -11 3 -14 6 -6 3 7 2 16 -1 19 -3 4 -6 -2 -5 -13z"/>
<path d="M7617 4635 c-4 -8 -2 -17 3 -20 6 -4 10 3 10 14 0 25 -6 27 -13 6z"/>
<path d="M7670 4634 c0 -8 5 -12 10 -9 6 4 8 11 5 16 -9 14 -15 11 -15 -7z"/>
<path d="M8786 4621 c-4 -7 -5 -15 -2 -18 9 -9 19 4 14 18 -4 11 -6 11 -12 0z"/>
<path d="M7583 4575 c23 -36 37 -44 37 -22 0 15 -37 57 -50 57 -5 0 1 -16 13
-35z"/>
<path d="M8805 4580 c-4 -12 -5 -24 -2 -27 3 -2 8 5 12 17 4 12 5 24 2 27 -3
2 -8 -5 -12 -17z"/>
<path d="M8830 4526 c0 -9 5 -16 10 -16 6 0 10 4 10 9 0 6 -4 13 -10 16 -5 3
-10 -1 -10 -9z"/>
<path d="M8860 4453 c1 -5 8 -19 16 -33 8 -14 13 -17 10 -7 -3 10 -6 25 -6 33
0 8 -4 14 -10 14 -5 0 -10 -3 -10 -7z"/>
<path d="M7740 4392 c0 -5 10 -17 21 -28 22 -19 22 -19 10 3 -12 24 -31 39
-31 25z"/>
<path d="M7801 4362 c-7 -13 -10 -28 -7 -35 2 -7 5 -5 5 5 1 9 6 18 13 20 6 2
9 11 6 18 -3 11 -8 9 -17 -8z"/>
<path d="M7840 4255 c0 -2 10 -10 23 -16 20 -11 21 -11 8 4 -13 16 -31 23 -31
12z"/>
<path d="M8608 4253 c6 -2 18 -2 25 0 6 3 1 5 -13 5 -14 0 -19 -2 -12 -5z"/>
<path d="M8780 4240 c0 -5 9 -10 20 -10 11 0 20 5 20 10 0 6 -9 10 -20 10 -11
0 -20 -4 -20 -10z"/>
<path d="M8728 4233 c6 -2 18 -2 25 0 6 3 1 5 -13 5 -14 0 -19 -2 -12 -5z"/>
<path d="M8486 4214 c-11 -7 -17 -17 -13 -20 3 -4 14 1 23 10 21 22 15 28 -10
10z"/>
<path d="M8565 4210 l-40 -7 35 -1 c19 0 44 3 55 8 24 10 7 10 -50 0z"/>
<path d="M7870 4205 c1 -15 40 -59 46 -52 3 3 -6 18 -20 34 -14 15 -26 23 -26
18z"/>
<path d="M8390 4180 c-12 -8 -12 -10 5 -10 11 0 27 5 35 10 12 8 12 10 -5 10
-11 0 -27 -5 -35 -10z"/>
<path d="M8230 4170 c0 -5 5 -10 11 -10 5 0 7 5 4 10 -3 6 -8 10 -11 10 -2 0
-4 -4 -4 -10z"/>
<path d="M8015 4120 c3 -5 13 -10 21 -10 8 0 14 5 14 10 0 6 -9 10 -21 10 -11
0 -17 -4 -14 -10z"/>
<path d="M11640 4540 c0 -5 5 -10 11 -10 5 0 7 5 4 10 -3 6 -8 10 -11 10 -2 0
-4 -4 -4 -10z"/>
<path d="M11245 4480 c-4 -6 5 -10 20 -10 15 0 24 4 20 10 -3 6 -12 10 -20 10
-8 0 -17 -4 -20 -10z"/>
<path d="M11185 4460 c-4 -6 3 -10 14 -10 25 0 27 6 6 13 -8 4 -17 2 -20 -3z"/>
<path d="M11073 4453 c-13 -2 -23 -9 -23 -14 0 -12 23 -12 36 0 5 5 23 11 39
14 l30 4 -30 0 c-16 0 -40 -2 -52 -4z"/>
<path d="M11008 4433 c7 -3 16 -2 19 1 4 3 -2 6 -13 5 -11 0 -14 -3 -6 -6z"/>
<path d="M10920 4420 c0 -6 7 -10 15 -10 8 0 15 2 15 4 0 2 -7 6 -15 10 -8 3
-15 1 -15 -4z"/>
<path d="M10848 4413 c7 -3 16 -2 19 1 4 3 -2 6 -13 5 -11 0 -14 -3 -6 -6z"/>
<path d="M11168 4373 c7 -3 16 -2 19 1 4 3 -2 6 -13 5 -11 0 -14 -3 -6 -6z"/>
<path d="M11300 4370 c0 -5 5 -10 11 -10 5 0 7 5 4 10 -3 6 -8 10 -11 10 -2 0
-4 -4 -4 -10z"/>
<path d="M10425 4345 l-50 -13 41 -1 c23 -1 55 6 70 14 36 19 12 19 -61 0z"/>
<path d="M11220 4340 c0 -6 7 -10 15 -10 8 0 15 2 15 4 0 2 -7 6 -15 10 -8 3
-15 1 -15 -4z"/>
<path d="M11620 4335 c0 -8 5 -15 10 -15 6 0 10 7 10 15 0 8 -4 15 -10 15 -5
0 -10 -7 -10 -15z"/>
<path d="M10290 4320 c-11 -7 -7 -10 18 -10 17 0 32 5 32 10 0 13 -30 13 -50
0z"/>
<path d="M10490 4320 c0 -5 5 -10 10 -10 6 0 10 5 10 10 0 6 -4 10 -10 10 -5
0 -10 -4 -10 -10z"/>
<path d="M11115 4320 c-3 -5 3 -10 14 -10 11 0 23 5 26 10 3 6 -3 10 -14 10
-11 0 -23 -4 -26 -10z"/>
<path d="M11260 4321 c0 -10 24 -21 48 -21 11 0 6 6 -12 15 -33 18 -36 18 -36
6z"/>
<path d="M10175 4294 l-30 -15 30 6 c17 3 46 10 65 14 l35 9 -35 0 c-19 0 -48
-6 -65 -14z"/>
<path d="M10418 4303 c6 -2 18 -2 25 0 6 3 1 5 -13 5 -14 0 -19 -2 -12 -5z"/>
<path d="M11075 4290 c-3 -5 1 -10 10 -10 9 0 13 5 10 10 -3 6 -8 10 -10 10
-2 0 -7 -4 -10 -10z"/>
<path d="M11146 4291 c-3 -4 -18 -11 -33 -14 -16 -3 -46 -21 -68 -40 -22 -19
-46 -32 -53 -30 -8 3 -10 -1 -5 -13 5 -13 3 -15 -7 -9 -9 5 -11 4 -6 -3 4 -6
-5 -29 -19 -51 -14 -23 -25 -47 -25 -54 0 -7 -5 -18 -10 -23 -13 -13 -29 -218
-18 -222 4 -2 8 -14 8 -27 0 -30 43 -110 82 -151 71 -76 191 -98 279 -51 61
32 126 102 162 177 30 62 31 71 31 185 0 104 -3 126 -23 168 -29 62 -90 123
-147 148 -47 19 -138 26 -148 10z m138 -142 c62 -54 92 -173 65 -258 -26 -82
-45 -115 -87 -152 -42 -36 -66 -45 -117 -41 -53 5 -104 65 -126 150 -11 43
-11 64 0 115 37 179 168 271 265 186z"/>
<path d="M11611 4274 c0 -11 3 -14 6 -6 3 7 2 16 -1 19 -3 4 -6 -2 -5 -13z"/>
<path d="M9958 4263 c6 -2 18 -2 25 0 6 3 1 5 -13 5 -14 0 -19 -2 -12 -5z"/>
<path d="M10641 4244 c6 -8 18 -14 26 -14 20 0 8 16 -17 23 -17 4 -19 3 -9 -9z"/>
<path d="M10778 4253 c7 -3 16 -2 19 1 4 3 -2 6 -13 5 -11 0 -14 -3 -6 -6z"/>
<path d="M10868 4253 c7 -3 16 -2 19 1 4 3 -2 6 -13 5 -11 0 -14 -3 -6 -6z"/>
<path d="M10940 4251 c0 -17 12 -41 20 -41 4 0 10 7 13 14 4 11 1 13 -10 9
-12 -5 -15 -2 -10 10 3 9 2 17 -3 17 -6 0 -10 -4 -10 -9z"/>
<path d="M11400 4245 c7 -9 15 -13 17 -11 7 7 -7 26 -19 26 -6 0 -6 -6 2 -15z"/>
<path d="M9780 4230 c0 -5 11 -10 24 -10 14 0 28 5 31 10 4 6 -7 10 -24 10
-17 0 -31 -4 -31 -10z"/>
<path d="M10438 4233 c7 -3 16 -2 19 1 4 3 -2 6 -13 5 -11 0 -14 -3 -6 -6z"/>
<path d="M10900 4231 c0 -5 5 -13 10 -16 6 -3 10 -2 10 4 0 5 -4 13 -10 16 -5
3 -10 2 -10 -4z"/>
<path d="M10380 4220 c0 -5 5 -10 11 -10 5 0 7 5 4 10 -3 6 -8 10 -11 10 -2 0
-4 -4 -4 -10z"/>
<path d="M10547 4219 c8 -8 16 -8 30 0 16 9 14 10 -11 11 -22 0 -27 -3 -19
-11z"/>
<path d="M11602 4200 c-8 -16 -11 -36 -9 -42 3 -7 6 -4 6 8 1 11 6 25 12 31 6
6 10 16 8 22 -2 6 -10 -2 -17 -19z"/>
<path d="M9635 4210 c-25 -6 -27 -8 -12 -15 10 -4 30 -1 50 9 35 17 18 20 -38
6z"/>
<path d="M10328 4213 c7 -3 16 -2 19 1 4 3 -2 6 -13 5 -11 0 -14 -3 -6 -6z"/>
<path d="M10640 4204 c-36 -8 -87 -18 -115 -23 -108 -19 -232 -42 -275 -50
-25 -5 -85 -17 -135 -26 -49 -9 -110 -21 -135 -25 -25 -5 -83 -16 -130 -25
-47 -9 -107 -21 -135 -25 -77 -14 -215 -40 -265 -50 -25 -5 -85 -16 -135 -25
-49 -9 -110 -20 -135 -25 -25 -5 -74 -14 -109 -20 -102 -16 -108 -26 -114
-183 -10 -266 -28 -395 -77 -566 -25 -89 -30 -97 -42 -80 -6 10 -7 4 -3 -17 4
-23 -2 -46 -27 -95 -18 -35 -41 -72 -50 -81 -10 -10 -18 -31 -18 -47 0 -16 -3
-38 -6 -48 -4 -13 -3 -15 4 -4 8 11 14 10 34 -3 27 -17 17 -19 233 39 33 9 78
21 100 27 22 6 47 13 55 16 19 7 115 31 155 39 17 3 35 9 40 13 6 4 32 11 59
15 27 3 56 10 65 15 31 15 110 30 127 23 12 -4 15 -3 10 5 -5 8 3 12 23 12 17
0 31 4 31 9 0 5 15 11 33 14 17 3 74 17 125 31 249 70 311 87 402 109 30 7 62
16 70 19 8 4 26 9 40 11 61 13 189 47 215 58 20 8 92 25 150 36 17 3 36 10 42
15 7 6 24 7 39 4 14 -4 23 -3 20 2 -4 8 104 42 141 44 18 2 40 29 48 59 5 19
0 34 -20 57 -15 18 -32 32 -39 32 -18 0 -69 57 -62 69 4 6 1 9 -6 6 -19 -8
-66 95 -76 165 -9 62 2 262 18 327 5 23 10 62 10 86 0 77 -39 91 -180 61z m42
-165 c-2 -24 -7 -47 -10 -50 -4 -4 -59 -16 -122 -28 -63 -12 -133 -26 -155
-31 -22 -5 -78 -16 -125 -25 -47 -9 -101 -20 -120 -25 -19 -4 -55 -11 -80 -15
-25 -4 -61 -10 -80 -15 -19 -5 -60 -14 -90 -20 -30 -6 -158 -31 -285 -56 -126
-26 -250 -50 -275 -55 -25 -4 -90 -17 -145 -28 -55 -12 -103 -21 -107 -21 -5
0 -8 27 -8 60 0 53 2 60 20 60 11 0 39 5 62 10 24 6 140 28 258 50 118 22 238
44 265 50 49 10 234 44 405 76 47 8 128 24 180 34 52 10 138 26 190 36 52 9
120 23 150 30 30 7 60 11 65 10 6 -2 8 -23 7 -47z m-22 -208 c0 -35 -2 -39
-32 -44 -18 -4 -64 -13 -103 -22 -38 -9 -88 -20 -110 -24 -22 -5 -92 -20 -155
-34 -63 -14 -158 -35 -210 -46 -52 -11 -113 -25 -135 -31 -34 -8 -164 -37
-615 -136 -36 -8 -85 -19 -110 -24 -25 -5 -62 -14 -83 -19 -20 -5 -39 -6 -41
-2 -2 3 -2 27 1 54 5 38 10 48 27 52 18 4 340 69 406 82 14 3 205 41 425 85
220 43 459 91 530 105 122 24 197 39 203 42 1 0 2 -16 2 -38z m20 -177 c14
-37 13 -43 -12 -48 -31 -7 -321 -77 -543 -131 -99 -24 -220 -53 -270 -65 -49
-12 -200 -48 -335 -81 -135 -33 -299 -73 -365 -89 -65 -15 -122 -27 -126 -24
-10 6 10 86 24 101 7 7 48 20 92 29 44 9 96 19 115 24 19 4 87 19 150 33 63
14 169 37 235 52 66 15 152 34 190 42 39 8 88 19 110 24 134 30 185 41 230 50
52 12 73 16 195 44 103 23 283 63 293 64 4 1 12 -11 17 -25z m95 -180 c15 -19
25 -37 23 -40 -3 -2 -38 -13 -79 -24 -41 -10 -99 -26 -129 -34 -78 -21 -296
-79 -570 -152 -74 -20 -175 -48 -225 -61 -49 -13 -132 -35 -182 -49 -200 -52
-301 -79 -443 -117 -52 -15 -120 -33 -150 -41 -30 -8 -64 -18 -74 -22 -16 -6
-18 -4 -12 12 5 10 13 33 18 49 6 17 15 34 19 40 5 5 9 17 9 26 0 19 21 27
130 53 135 31 366 87 400 96 19 6 112 28 205 50 94 23 215 52 270 65 55 13
168 40 250 60 83 19 166 40 185 45 37 10 310 78 321 79 4 1 19 -15 34 -35z"/>
<path d="M9710 4200 c0 -13 11 -13 30 0 12 8 11 10 -7 10 -13 0 -23 -4 -23
-10z"/>
<path d="M10835 4200 c3 -5 8 -10 11 -10 2 0 4 5 4 10 0 6 -5 10 -11 10 -5 0
-7 -4 -4 -10z"/>
<path d="M10868 4175 c-3 -14 -1 -25 3 -25 5 0 9 11 9 25 0 14 -2 25 -4 25 -2
0 -6 -11 -8 -25z"/>
<path d="M10942 4180 c7 -10 14 -18 15 -16 6 6 -9 36 -18 36 -5 0 -4 -9 3 -20z"/>
<path d="M10398 4183 c12 -2 32 -2 45 0 12 2 2 4 -23 4 -25 0 -35 -2 -22 -4z"/>
<path d="M9488 4173 c7 -3 16 -2 19 1 4 3 -2 6 -13 5 -11 0 -14 -3 -6 -6z"/>
<path d="M9370 4160 c0 -5 17 -10 38 -9 33 1 34 2 12 9 -36 11 -50 11 -50 0z"/>
<path d="M9228 4133 c7 -3 16 -2 19 1 4 3 -2 6 -13 5 -11 0 -14 -3 -6 -6z"/>
<path d="M10841 4098 c1 -37 2 -39 9 -18 12 36 12 60 0 60 -5 0 -10 -19 -9
-42z"/>
<path d="M11482 4105 c0 -16 2 -22 5 -12 2 9 2 23 0 30 -3 6 -5 -1 -5 -18z"/>
<path d="M9635 4094 l-30 -15 35 7 c19 4 48 6 63 6 15 -1 25 3 22 8 -9 14 -55
11 -90 -6z"/>
<path d="M10890 4073 c0 -22 2 -25 10 -13 13 20 13 40 0 40 -5 0 -10 -12 -10
-27z"/>
<path d="M9795 4080 c-19 -8 -19 -9 2 -9 12 -1 25 4 28 9 7 12 -2 12 -30 0z"/>
<path d="M9873 4083 c9 -2 23 -2 30 0 6 3 -1 5 -18 5 -16 0 -22 -2 -12 -5z"/>
<path d="M8900 4070 c0 -5 23 -10 51 -10 31 0 48 4 44 10 -3 6 -26 10 -51 10
-24 0 -44 -4 -44 -10z"/>
<path d="M8810 4062 c0 -5 17 -12 38 -14 61 -8 60 9 -2 19 -22 3 -36 2 -36 -5z"/>
<path d="M8703 4043 c9 -2 23 -2 30 0 6 3 -1 5 -18 5 -16 0 -22 -2 -12 -5z"/>
<path d="M9615 4040 c-8 -13 15 -13 35 0 12 8 11 10 -7 10 -12 0 -25 -4 -28
-10z"/>
<path d="M11507 4015 c-4 -8 -2 -17 3 -20 6 -4 10 3 10 14 0 25 -6 27 -13 6z"/>
<path d="M10821 4004 c0 -11 3 -14 6 -6 3 7 2 16 -1 19 -3 4 -6 -2 -5 -13z"/>
<path d="M9318 3983 c12 -2 30 -2 40 0 9 3 -1 5 -23 4 -22 0 -30 -2 -17 -4z"/>
<path d="M8965 3950 c-3 -5 1 -10 9 -10 9 0 16 5 16 10 0 6 -4 10 -9 10 -6 0
-13 -4 -16 -10z"/>
<path d="M9098 3943 c6 -2 18 -2 25 0 6 3 1 5 -13 5 -14 0 -19 -2 -12 -5z"/>
<path d="M10822 3930 c0 -14 2 -19 5 -12 2 6 2 18 0 25 -3 6 -5 1 -5 -13z"/>
<path d="M8912 3920 c-17 -28 -15 -32 8 -13 20 18 26 33 12 33 -4 0 -13 -9
-20 -20z"/>
<path d="M9023 3933 c9 -2 25 -2 35 0 9 3 1 5 -18 5 -19 0 -27 -2 -17 -5z"/>
<path d="M8080 3923 c-29 -12 -54 -63 -30 -63 5 0 7 7 4 15 -4 8 -2 15 2 15 5
0 20 9 34 20 24 19 20 24 -10 13z"/>
<path d="M8125 3900 c-3 -5 3 -10 15 -10 12 0 18 5 15 10 -3 6 -10 10 -15 10
-5 0 -12 -4 -15 -10z"/>
<path d="M8953 3898 c-25 -12 -31 -28 -10 -28 7 0 18 9 25 20 7 11 11 20 10
19 -2 0 -13 -5 -25 -11z"/>
<path d="M10860 3870 c0 -5 5 -10 10 -10 6 0 10 5 10 10 0 6 -4 10 -10 10 -5
0 -10 -4 -10 -10z"/>
<path d="M11538 3825 c-3 -14 -1 -28 3 -31 5 -3 9 9 9 25 0 38 -6 40 -12 6z"/>
<path d="M8528 3833 c7 -3 16 -2 19 1 4 3 -2 6 -13 5 -11 0 -14 -3 -6 -6z"/>
<path d="M8555 3800 c-3 -5 3 -10 14 -10 12 0 21 5 21 10 0 6 -6 10 -14 10 -8
0 -18 -4 -21 -10z"/>
<path d="M8425 3785 c-59 -17 -110 -42 -125 -59 -16 -20 -30 -20 -30 -1 0 8
-4 15 -10 15 -14 0 -12 -27 3 -33 8 -3 -1 -18 -25 -43 -98 -104 -142 -301
-102 -460 14 -56 15 -67 3 -75 -11 -6 -11 -11 -1 -21 9 -9 12 -9 12 5 0 27 14
20 29 -15 8 -18 34 -51 57 -74 l43 -41 -27 -13 c-15 -7 -22 -15 -15 -17 7 -3
20 3 29 11 8 9 19 16 24 16 15 0 21 -18 8 -23 -7 -2 1 -4 17 -4 17 0 54 -4 82
-8 61 -9 128 6 185 42 21 13 42 23 47 23 6 0 15 10 22 21 6 12 26 42 45 66 19
25 34 49 34 55 0 5 8 22 18 36 11 15 27 70 37 122 16 89 16 101 1 173 -8 42
-25 96 -36 119 -14 29 -17 45 -9 54 7 8 7 14 -1 19 -5 3 -10 -2 -10 -12 0 -12
-12 -4 -40 27 -22 24 -40 48 -40 52 0 4 -5 8 -11 8 -6 0 -25 6 -42 14 -37 16
-110 37 -123 35 -5 -1 -27 -7 -49 -14z m100 -118 c74 -29 119 -88 141 -186 20
-86 10 -169 -29 -254 -50 -110 -123 -167 -212 -167 -53 0 -58 2 -103 48 -65
64 -86 132 -80 251 6 105 39 182 108 251 61 62 116 80 175 57z"/>
<path d="M8933 3725 c0 -44 2 -61 4 -37 2 23 2 59 0 80 -2 20 -4 1 -4 -43z"/>
<path d="M8010 3771 c0 -11 5 -23 10 -26 6 -3 10 3 10 14 0 11 -4 23 -10 26
-5 3 -10 -3 -10 -14z"/>
<path d="M8300 3775 c-17 -20 7 -20 34 0 19 15 19 15 -1 15 -11 0 -26 -7 -33
-15z"/>
<path d="M8660 3770 c0 -5 5 -10 11 -10 5 0 7 5 4 10 -3 6 -8 10 -11 10 -2 0
-4 -4 -4 -10z"/>
<path d="M11517 3745 c-4 -8 -2 -17 3 -20 6 -4 10 3 10 14 0 25 -6 27 -13 6z"/>
<path d="M8011 3704 c0 -11 3 -14 6 -6 3 7 2 16 -1 19 -3 4 -6 -2 -5 -13z"/>
<path d="M10921 3704 c0 -11 3 -14 6 -6 3 7 2 16 -1 19 -3 4 -6 -2 -5 -13z"/>
<path d="M8217 3693 c-4 -3 -7 -11 -7 -17 0 -6 5 -5 12 2 6 6 9 14 7 17 -3 3
-9 2 -12 -2z"/>
<path d="M10880 3691 c0 -5 5 -13 10 -16 6 -3 10 -2 10 4 0 5 -4 13 -10 16 -5
3 -10 2 -10 -4z"/>
<path d="M11421 3680 c-12 -11 -28 -17 -34 -13 -7 4 -8 0 -4 -11 5 -13 3 -17
-6 -13 -8 3 -13 -3 -13 -14 0 -11 1 -19 2 -19 0 0 22 20 47 45 47 45 52 61 8
25z"/>
<path d="M11508 3665 c-3 -14 -1 -28 3 -31 5 -3 9 9 9 25 0 38 -6 40 -12 6z"/>
<path d="M8167 3653 c-4 -3 -7 -18 -7 -32 l1 -26 14 25 c8 14 14 28 15 33 0 9
-14 9 -23 0z"/>
<path d="M10976 3639 c4 -6 1 -15 -6 -19 -8 -5 -4 -8 12 -7 27 2 28 21 2 31
-9 4 -12 2 -8 -5z"/>
<path d="M10925 3589 c-11 -17 1 -21 15 -4 8 9 8 15 2 15 -6 0 -14 -5 -17 -11z"/>
<path d="M11020 3590 c0 -5 7 -10 16 -10 8 0 12 5 9 10 -3 6 -10 10 -16 10 -5
0 -9 -4 -9 -10z"/>
<path d="M8130 3575 c0 -5 5 -17 10 -25 5 -8 10 -10 10 -5 0 6 -5 17 -10 25
-5 8 -10 11 -10 5z"/>
<path d="M10901 3560 c-1 -18 18 -40 34 -40 5 0 3 6 -6 13 -9 7 -18 19 -22 27
-5 13 -6 13 -6 0z"/>
<path d="M11000 3560 c0 -5 4 -10 9 -10 6 0 13 5 16 10 3 6 -1 10 -9 10 -9 0
-16 -4 -16 -10z"/>
<path d="M11487 3540 c-3 -11 -1 -20 4 -20 5 0 9 9 9 20 0 11 -2 20 -4 20 -2
0 -6 -9 -9 -20z"/>
<path d="M8802 3480 c0 -14 2 -19 5 -12 2 6 2 18 0 25 -3 6 -5 1 -5 -13z"/>
<path d="M8900 3486 c0 -8 5 -18 10 -21 6 -3 10 3 10 14 0 12 -4 21 -10 21 -5
0 -10 -6 -10 -14z"/>
<path d="M10990 3484 c0 -14 3 -14 15 -4 8 7 15 14 15 16 0 2 -7 4 -15 4 -8 0
-15 -7 -15 -16z"/>
<path d="M11010 3460 c0 -5 5 -10 10 -10 6 0 10 5 10 10 0 6 -4 10 -10 10 -5
0 -10 -4 -10 -10z"/>
<path d="M8012 3430 c0 -14 2 -19 5 -12 2 6 2 18 0 25 -3 6 -5 1 -5 -13z"/>
<path d="M8902 3410 c0 -14 2 -19 5 -12 2 6 2 18 0 25 -3 6 -5 1 -5 -13z"/>
<path d="M11020 3394 c0 -8 5 -12 10 -9 6 4 8 11 5 16 -9 14 -15 11 -15 -7z"/>
<path d="M11355 3380 c3 -5 8 -10 11 -10 2 0 4 5 4 10 0 6 -5 10 -11 10 -5 0
-7 -4 -4 -10z"/>
<path d="M11450 3379 c0 -5 5 -7 10 -4 6 3 10 8 10 11 0 2 -4 4 -10 4 -5 0
-10 -5 -10 -11z"/>
<path d="M8092 3345 c0 -16 2 -22 5 -12 2 9 2 23 0 30 -3 6 -5 -1 -5 -18z"/>
<path d="M11000 3355 c0 -8 5 -15 10 -15 6 0 10 7 10 15 0 8 -4 15 -10 15 -5
0 -10 -7 -10 -15z"/>
<path d="M8061 3334 c0 -11 3 -14 6 -6 3 7 2 16 -1 19 -3 4 -6 -2 -5 -13z"/>
<path d="M8826 3324 c-9 -22 3 -32 14 -14 12 19 12 30 1 30 -5 0 -12 -7 -15
-16z"/>
<path d="M11183 3303 c-24 -9 -13 -20 17 -15 17 2 30 8 30 13 0 10 -27 11 -47
2z"/>
<path d="M11086 3288 c-10 -6 -33 -8 -52 -5 -19 3 -34 2 -34 -4 0 -13 97 -11
105 2 10 16 2 19 -19 7z"/>
<path d="M8877 3284 c-4 -4 -7 -17 -7 -28 1 -19 1 -20 11 -3 11 19 8 43 -4 31z"/>
<path d="M8802 3255 c0 -16 2 -22 5 -12 2 9 2 23 0 30 -3 6 -5 -1 -5 -18z"/>
<path d="M10730 3240 c0 -12 8 -12 35 0 18 8 17 9 -7 9 -16 1 -28 -3 -28 -9z"/>
<path d="M10640 3230 c-12 -8 -11 -10 8 -10 12 0 22 5 22 10 0 13 -11 13 -30
0z"/>
<path d="M8100 3204 c0 -8 5 -12 10 -9 6 3 10 10 10 16 0 5 -4 9 -10 9 -5 0
-10 -7 -10 -16z"/>
<path d="M10585 3210 c-3 -5 1 -10 9 -10 9 0 16 5 16 10 0 6 -4 10 -9 10 -6 0
-13 -4 -16 -10z"/>
<path d="M8820 3194 c0 -8 5 -12 10 -9 6 4 8 11 5 16 -9 14 -15 11 -15 -7z"/>
<path d="M10518 3203 c7 -3 16 -2 19 1 4 3 -2 6 -13 5 -11 0 -14 -3 -6 -6z"/>
<path d="M10645 3190 c-3 -5 1 -10 10 -10 9 0 13 5 10 10 -3 6 -8 10 -10 10
-2 0 -7 -4 -10 -10z"/>
<path d="M8846 3165 c4 -8 8 -15 10 -15 2 0 4 7 4 15 0 8 -4 15 -10 15 -5 0
-7 -7 -4 -15z"/>
<path d="M10388 3173 c7 -3 16 -2 19 1 4 3 -2 6 -13 5 -11 0 -14 -3 -6 -6z"/>
<path d="M10780 3170 c0 -5 5 -10 10 -10 6 0 10 5 10 10 0 6 -4 10 -10 10 -5
0 -10 -4 -10 -10z"/>
<path d="M8111 3154 c0 -11 3 -14 6 -6 3 7 2 16 -1 19 -3 4 -6 -2 -5 -13z"/>
<path d="M10515 3160 c-3 -5 1 -10 10 -10 9 0 13 5 10 10 -3 6 -8 10 -10 10
-2 0 -7 -4 -10 -10z"/>
<path d="M10680 3160 c0 -5 7 -10 15 -10 8 0 15 5 15 10 0 6 -7 10 -15 10 -8
0 -15 -4 -15 -10z"/>
<path d="M10308 3146 c-15 -8 -38 -17 -50 -19 -13 -3 -4 -3 20 -1 24 2 50 11
58 19 19 19 7 19 -28 1z"/>
<path d="M10652 3138 c2 -6 10 -14 16 -16 7 -2 10 2 6 12 -7 18 -28 22 -22 4z"/>
<path d="M8730 3130 c0 -5 5 -10 11 -10 5 0 7 5 4 10 -3 6 -8 10 -11 10 -2 0
-4 -4 -4 -10z"/>
<path d="M10197 3123 c-12 -12 -7 -22 8 -17 8 4 15 10 15 15 0 11 -14 12 -23
2z"/>
<path d="M10356 3121 c-4 -5 -2 -12 3 -15 5 -4 12 -2 15 3 4 5 2 12 -3 15 -5
4 -12 2 -15 -3z"/>
<path d="M10110 3100 c0 -5 4 -10 9 -10 6 0 13 5 16 10 3 6 -1 10 -9 10 -9 0
-16 -4 -16 -10z"/>
<path d="M8729 3078 c0 -7 -2 -28 -3 -45 -2 -18 1 -33 6 -33 5 0 8 12 7 28 -2
15 0 32 4 39 4 6 3 14 -3 18 -5 3 -10 0 -11 -7z"/>
<path d="M8013 2980 c0 -36 2 -50 4 -32 2 17 2 47 0 65 -2 17 -4 3 -4 -33z"/>
<path d="M10218 3003 c7 -3 16 -2 19 1 4 3 -2 6 -13 5 -11 0 -14 -3 -6 -6z"/>
<path d="M8220 2990 c0 -5 5 -10 10 -10 6 0 10 5 10 10 0 6 -4 10 -10 10 -5 0
-10 -4 -10 -10z"/>
<path d="M10108 2986 c-47 -14 -58 -26 -25 -26 15 0 27 5 27 10 0 6 9 10 19
10 11 0 23 5 26 10 7 12 1 11 -47 -4z"/>
<path d="M9805 2980 c3 -5 14 -10 23 -10 15 0 15 2 2 10 -20 13 -33 13 -25 0z"/>
<path d="M8690 2965 c-7 -8 -8 -15 -2 -15 5 0 15 7 22 15 7 8 8 15 2 15 -5 0
-15 -7 -22 -15z"/>
<path d="M9688 2973 c7 -3 16 -2 19 1 4 3 -2 6 -13 5 -11 0 -14 -3 -6 -6z"/>
<path d="M8610 2950 c0 -5 5 -10 10 -10 6 0 10 5 10 10 0 6 -4 10 -10 10 -5 0
-10 -4 -10 -10z"/>
<path d="M9643 2953 c9 -2 23 -2 30 0 6 3 -1 5 -18 5 -16 0 -22 -2 -12 -5z"/>
<path d="M9738 2953 c7 -3 16 -2 19 1 4 3 -2 6 -13 5 -11 0 -14 -3 -6 -6z"/>
<path d="M9545 2940 c-3 -5 1 -10 9 -10 9 0 16 5 16 10 0 6 -4 10 -9 10 -6 0
-13 -4 -16 -10z"/>
<path d="M9984 2935 c-23 -18 -10 -18 36 0 32 12 33 14 9 14 -14 1 -34 -6 -45
-14z"/>
<path d="M8520 2932 c0 -5 7 -13 16 -16 10 -4 14 -1 12 6 -5 15 -28 23 -28 10z"/>
<path d="M8360 2920 c0 -5 5 -10 10 -10 6 0 10 5 10 10 0 6 -4 10 -10 10 -5 0
-10 -4 -10 -10z"/>
<path d="M8475 2920 c3 -5 8 -10 11 -10 2 0 4 5 4 10 0 6 -5 10 -11 10 -5 0
-7 -4 -4 -10z"/>
<path d="M9508 2923 c7 -3 16 -2 19 1 4 3 -2 6 -13 5 -11 0 -14 -3 -6 -6z"/>
<path d="M9830 2900 c-14 -11 -32 -20 -41 -20 -26 0 -88 -29 -64 -30 26 0 106
31 124 48 22 21 8 22 -19 2z"/>
<path d="M8708 2854 c-2 -19 0 -37 4 -40 4 -3 8 13 8 35 0 51 -6 53 -12 5z"/>
<path d="M9178 2853 c7 -3 16 -2 19 1 4 3 -2 6 -13 5 -11 0 -14 -3 -6 -6z"/>
<path d="M9245 2840 c-3 -5 3 -10 15 -10 12 0 18 5 15 10 -3 6 -10 10 -15 10
-5 0 -12 -4 -15 -10z"/>
<path d="M9635 2835 c-24 -11 -26 -14 -9 -15 11 0 29 7 40 15 24 18 9 18 -31
0z"/>
<path d="M9043 2803 c9 -2 23 -2 30 0 6 3 -1 5 -18 5 -16 0 -22 -2 -12 -5z"/>
<path d="M9208 2773 c7 -3 16 -2 19 1 4 3 -2 6 -13 5 -11 0 -14 -3 -6 -6z"/>
<path d="M9278 2773 c7 -3 16 -2 19 1 4 3 -2 6 -13 5 -11 0 -14 -3 -6 -6z"/>
<path d="M9448 2773 c6 -2 18 -2 25 0 6 3 1 5 -13 5 -14 0 -19 -2 -12 -5z"/>
<path d="M8875 2760 c3 -5 8 -10 11 -10 2 0 4 5 4 10 0 6 -5 10 -11 10 -5 0
-7 -4 -4 -10z"/>
<path d="M9415 2760 c-3 -5 -1 -10 4 -10 6 0 11 5 11 10 0 6 -2 10 -4 10 -3 0
-8 -4 -11 -10z"/>
<path d="M9168 2753 c7 -3 16 -2 19 1 4 3 -2 6 -13 5 -11 0 -14 -3 -6 -6z"/>
<path d="M9320 2756 c0 -2 11 -6 25 -8 13 -3 22 -1 19 3 -5 9 -44 13 -44 5z"/>
<path d="M9200 2730 c0 -12 44 -24 62 -17 7 3 3 6 -9 6 -12 1 -25 6 -28 11 -8
13 -25 13 -25 0z"/>
<path d="M9000 2640 c0 -5 7 -10 15 -10 8 0 15 5 15 10 0 6 -7 10 -15 10 -8 0
-15 -4 -15 -10z"/>
<path d="M8920 2620 c0 -13 11 -13 30 0 12 8 11 10 -7 10 -13 0 -23 -4 -23
-10z"/>
<path d="M8713 2603 c9 -2 23 -2 30 0 6 3 -1 5 -18 5 -16 0 -22 -2 -12 -5z"/>
<path d="M8800 2600 c20 -13 40 -13 40 0 0 6 -12 10 -27 10 -22 0 -25 -2 -13
-10z"/>
<path d="M8878 2603 c7 -3 16 -2 19 1 4 3 -2 6 -13 5 -11 0 -14 -3 -6 -6z"/>
<path d="M8630 2580 c0 -5 5 -10 10 -10 6 0 10 5 10 10 0 6 -4 10 -10 10 -5 0
-10 -4 -10 -10z"/>
<path d="M8725 2570 c-3 -5 -19 -10 -36 -10 -16 0 -29 -5 -29 -11 0 -7 9 -9
23 -5 12 4 34 9 50 12 15 4 27 10 27 15 0 12 -27 11 -35 -1z"/>
<path d="M8548 2503 c7 -3 16 -2 19 1 4 3 -2 6 -13 5 -11 0 -14 -3 -6 -6z"/>
<path d="M8285 2450 c3 -5 10 -10 16 -10 5 0 9 5 9 10 0 6 -7 10 -16 10 -8 0
-12 -4 -9 -10z"/>
<path d="M8368 2453 c6 -2 18 -2 25 0 6 3 1 5 -13 5 -14 0 -19 -2 -12 -5z"/>
<path d="M8328 2433 c7 -3 16 -2 19 1 4 3 -2 6 -13 5 -11 0 -14 -3 -6 -6z"/>
<path d="M8230 2420 c-12 -8 -11 -10 8 -10 12 0 22 5 22 10 0 13 -11 13 -30 0z"/>
<path d="M8005 2360 c3 -5 8 -10 11 -10 2 0 4 5 4 10 0 6 -5 10 -11 10 -5 0
-7 -4 -4 -10z"/>
<path d="M11595 2840 l-30 -8 35 -1 c19 0 42 4 50 9 12 8 11 10 -5 9 -11 -1
-33 -5 -50 -9z"/>
<path d="M11658 2818 c-13 -20 -17 -21 -32 -9 -9 7 -16 9 -16 3 0 -16 30 -23
51 -12 10 6 19 17 19 25 0 21 -5 19 -22 -7z"/>
<path d="M11523 2813 c9 -2 23 -2 30 0 6 3 -1 5 -18 5 -16 0 -22 -2 -12 -5z"/>
<path d="M11383 2763 c9 -2 23 -2 30 0 6 3 -1 5 -18 5 -16 0 -22 -2 -12 -5z"/>
<path d="M11455 2750 c3 -5 8 -10 11 -10 2 0 4 5 4 10 0 6 -5 10 -11 10 -5 0
-7 -4 -4 -10z"/>
<path d="M11517 2753 c-13 -12 -7 -26 6 -15 6 5 23 12 37 15 22 4 21 4 -6 6
-17 0 -34 -2 -37 -6z"/>
<path d="M11245 2720 c-8 -13 5 -13 25 0 13 8 13 10 -2 10 -9 0 -20 -4 -23
-10z"/>
<path d="M11430 2720 c0 -5 5 -10 10 -10 6 0 10 5 10 10 0 6 -4 10 -10 10 -5
0 -10 -4 -10 -10z"/>
<path d="M11188 2703 c6 -2 18 -2 25 0 6 3 1 5 -13 5 -14 0 -19 -2 -12 -5z"/>
<path d="M11368 2703 c6 -2 18 -2 25 0 6 3 1 5 -13 5 -14 0 -19 -2 -12 -5z"/>
<path d="M11100 2681 c-8 -5 -44 -18 -80 -29 -59 -19 -61 -20 -20 -15 25 3 47
10 48 15 2 4 16 8 31 8 15 0 31 4 37 9 5 5 18 11 29 14 16 4 15 5 -5 5 -14 1
-32 -3 -40 -7z"/>
<path d="M11238 2653 c6 -2 18 -2 25 0 6 3 1 5 -13 5 -14 0 -19 -2 -12 -5z"/>
<path d="M10903 2613 c9 -2 23 -2 30 0 6 3 -1 5 -18 5 -16 0 -22 -2 -12 -5z"/>
<path d="M11090 2610 c-12 -8 -11 -10 8 -10 12 0 22 5 22 10 0 13 -11 13 -30
0z"/>
<path d="M10845 2600 c-3 -5 3 -10 14 -10 12 0 21 5 21 10 0 6 -6 10 -14 10
-8 0 -18 -4 -21 -10z"/>
<path d="M11040 2600 c-8 -5 -11 -12 -8 -16 4 -3 14 1 23 10 18 17 9 21 -15 6z"/>
<path d="M10965 2580 c11 -5 27 -9 35 -9 9 0 8 4 -5 9 -11 5 -27 9 -35 9 -9 0
-8 -4 5 -9z"/>
<path d="M10738 2567 c-21 -6 -38 -14 -38 -19 0 -11 28 -10 35 2 3 6 15 10 26
10 10 0 19 5 19 10 0 6 -1 9 -2 9 -2 -1 -20 -6 -40 -12z"/>
<path d="M10948 2553 c7 -3 16 -2 19 1 4 3 -2 6 -13 5 -11 0 -14 -3 -6 -6z"/>
<path d="M10890 2540 c-13 -8 -12 -10 3 -10 9 0 17 5 17 10 0 12 -1 12 -20 0z"/>
<path d="M10670 2520 c0 -11 4 -20 9 -20 5 0 7 9 4 20 -3 11 -7 20 -9 20 -2 0
-4 -9 -4 -20z"/>
<path d="M10720 2490 c-13 -8 -13 -10 2 -10 9 0 20 5 23 10 8 13 -5 13 -25 0z"/>
<path d="M9480 2210 c-8 -5 -26 -10 -40 -10 -17 0 -21 -3 -12 -9 16 -10 62 -2
62 10 0 5 6 6 14 3 8 -3 17 -1 21 5 8 14 -25 14 -45 1z"/>
<path d="M9368 2173 c6 -2 18 -2 25 0 6 3 1 5 -13 5 -14 0 -19 -2 -12 -5z"/>
<path d="M9245 2135 c-17 -8 -23 -14 -14 -14 9 -1 30 6 45 14 36 19 10 19 -31
0z"/>
<path d="M9150 2109 c0 -5 5 -7 10 -4 6 3 10 8 10 11 0 2 -4 4 -10 4 -5 0 -10
-5 -10 -11z"/>
<path d="M9070 2084 c-30 -11 -32 -13 -10 -13 14 0 36 6 50 14 31 18 7 17 -40
-1z"/>
<path d="M9178 2083 c7 -3 16 -2 19 1 4 3 -2 6 -13 5 -11 0 -14 -3 -6 -6z"/>
<path d="M9452 2075 c-16 -19 -13 -19 29 0 31 13 32 14 9 14 -14 0 -31 -6 -38
-14z"/>
<path d="M8990 2054 l-35 -14 35 6 c36 6 46 11 39 18 -2 2 -20 -3 -39 -10z"/>
<path d="M9380 2060 c0 -13 11 -13 30 0 12 8 11 10 -7 10 -13 0 -23 -4 -23
-10z"/>
<path d="M9345 2040 c-3 -5 -1 -10 4 -10 6 0 11 5 11 10 0 6 -2 10 -4 10 -3 0
-8 -4 -11 -10z"/>
<path d="M8862 2023 c-24 -9 -41 -18 -38 -20 7 -8 96 20 96 29 0 10 -4 9 -58
-9z"/>
<path d="M9216 2005 c-26 -20 0 -20 34 0 22 13 23 14 5 14 -11 0 -29 -6 -39
-14z"/>
<path d="M8778 1993 c6 -2 18 -2 25 0 6 3 1 5 -13 5 -14 0 -19 -2 -12 -5z"/>
<path d="M8898 1993 c7 -3 16 -2 19 1 4 3 -2 6 -13 5 -11 0 -14 -3 -6 -6z"/>
<path d="M9038 1993 c7 -3 16 -2 19 1 4 3 -2 6 -13 5 -11 0 -14 -3 -6 -6z"/>
<path d="M8728 1973 c6 -2 18 -2 25 0 6 3 1 5 -13 5 -14 0 -19 -2 -12 -5z"/>
<path d="M8680 1960 c-8 -5 -10 -10 -5 -10 6 0 17 5 25 10 8 5 11 10 5 10 -5
0 -17 -5 -25 -10z"/>
<path d="M8608 1943 c7 -3 16 -2 19 1 4 3 -2 6 -13 5 -11 0 -14 -3 -6 -6z"/>
<path d="M8855 1930 c3 -5 13 -10 21 -10 8 0 12 5 9 10 -3 6 -13 10 -21 10 -8
0 -12 -4 -9 -10z"/>
<path d="M8558 1923 c6 -2 18 -2 25 0 6 3 1 5 -13 5 -14 0 -19 -2 -12 -5z"/>
<path d="M8477 1903 c-10 -9 -9 -23 2 -23 5 0 11 7 15 15 5 15 -5 20 -17 8z"/>
<path d="M8903 1893 c9 -2 23 -2 30 0 6 3 -1 5 -18 5 -16 0 -22 -2 -12 -5z"/>
<path d="M8408 1863 c6 -2 18 -2 25 0 6 3 1 5 -13 5 -14 0 -19 -2 -12 -5z"/>
<path d="M8808 1863 c6 -2 18 -2 25 0 6 3 1 5 -13 5 -14 0 -19 -2 -12 -5z"/>
<path d="M8293 1843 c9 -2 23 -2 30 0 6 3 -1 5 -18 5 -16 0 -22 -2 -12 -5z"/>
<path d="M8190 1810 c-12 -8 -11 -10 8 -10 12 0 22 5 22 10 0 13 -11 13 -30 0z"/>
<path d="M7535 1799 c-12 -18 3 -22 20 -5 14 14 14 16 1 16 -8 0 -18 -5 -21
-11z"/>
<path d="M7595 1790 c3 -5 13 -10 21 -10 8 0 12 5 9 10 -3 6 -13 10 -21 10 -8
0 -12 -4 -9 -10z"/>
<path d="M8468 1793 c15 -3 22 -10 18 -18 -3 -9 0 -12 10 -8 29 11 4 35 -34
32 -10 -1 -7 -4 6 -6z"/>
<path d="M8545 1790 c27 -12 43 -12 25 0 -8 5 -22 9 -30 9 -10 0 -8 -3 5 -9z"/>
<path d="M7660 1773 c8 -3 20 -9 27 -15 6 -5 38 -11 70 -13 l58 -5 -60 15
c-61 15 -123 26 -95 18z"/>
<path d="M8073 1773 c9 -2 25 -2 35 0 9 3 1 5 -18 5 -19 0 -27 -2 -17 -5z"/>
<path d="M7520 1749 c0 -11 4 -18 10 -14 5 3 7 12 3 20 -7 21 -13 19 -13 -6z"/>
<path d="M8003 1753 c9 -2 25 -2 35 0 9 3 1 5 -18 5 -19 0 -27 -2 -17 -5z"/>
<path d="M7944 1736 c31 -18 56 -22 41 -7 -6 5 -23 13 -40 16 l-30 7 29 -16z"/>
<path d="M7668 1723 c7 -3 16 -2 19 1 4 3 -2 6 -13 5 -11 0 -14 -3 -6 -6z"/>
<path d="M7521 1704 c0 -11 3 -14 6 -6 3 7 2 16 -1 19 -3 4 -6 -2 -5 -13z"/>
<path d="M7543 1663 c9 -2 25 -2 35 0 9 3 1 5 -18 5 -19 0 -27 -2 -17 -5z"/>
<path d="M8085 1660 c4 -6 11 -8 16 -5 14 9 11 15 -7 15 -8 0 -12 -5 -9 -10z"/>
<path d="M8148 1643 c6 -2 18 -2 25 0 6 3 1 5 -13 5 -14 0 -19 -2 -12 -5z"/>
<path d="M8068 1623 c7 -3 16 -2 19 1 4 3 -2 6 -13 5 -11 0 -14 -3 -6 -6z"/>
<path d="M7770 1610 c20 -13 50 -13 50 0 0 6 -15 10 -32 10 -25 0 -29 -3 -18
-10z"/>
<path d="M7998 1593 c7 -3 16 -2 19 1 4 3 -2 6 -13 5 -11 0 -14 -3 -6 -6z"/>
<path d="M1405 2920 c-4 -6 3 -10 14 -10 25 0 27 6 6 13 -8 4 -17 2 -20 -3z"/>
<path d="M1485 2897 c18 -13 105 -31 105 -21 0 2 -19 8 -42 14 -24 6 -52 14
-63 17 l-20 5 20 -15z"/>
<path d="M1625 2870 c3 -5 18 -10 33 -9 24 0 25 1 7 9 -28 12 -47 12 -40 0z"/>
<path d="M1715 2849 c17 -6 50 -14 75 -19 25 -5 58 -12 74 -16 20 -5 27 -3 22
4 -4 6 -34 14 -67 18 -32 4 -62 11 -65 15 -3 5 -20 9 -37 8 l-32 -1 30 -9z"/>
<path d="M1625 2840 c-3 -5 1 -10 10 -10 9 0 13 5 10 10 -3 6 -8 10 -10 10 -2
0 -7 -4 -10 -10z"/>
<path d="M1368 2793 c7 -3 16 -2 19 1 4 3 -2 6 -13 5 -11 0 -14 -3 -6 -6z"/>
<path d="M1548 2753 c7 -3 16 -2 19 1 4 3 -2 6 -13 5 -11 0 -14 -3 -6 -6z"/>
<path d="M1738 2753 c7 -3 16 -2 19 1 4 3 -2 6 -13 5 -11 0 -14 -3 -6 -6z"/>
<path d="M1668 2733 c7 -3 16 -2 19 1 4 3 -2 6 -13 5 -11 0 -14 -3 -6 -6z"/>
<path d="M1738 2713 c7 -3 16 -2 19 1 4 3 -2 6 -13 5 -11 0 -14 -3 -6 -6z"/>
<path d="M1796 2711 c-3 -5 8 -14 26 -20 31 -11 31 -11 13 9 -20 22 -31 25
-39 11z"/>
<path d="M1876 2711 c-4 -7 -5 -15 -2 -18 9 -9 19 4 14 18 -4 11 -6 11 -12 0z"/>
<path d="M2712 2523 c0 -31 3 -42 9 -32 7 11 9 9 9 -8 0 -13 5 -23 11 -23 7 0
8 7 4 18 -4 9 -11 32 -15 50 -12 49 -17 48 -18 -5z"/>
<path d="M2751 2434 c0 -11 3 -14 6 -6 3 7 2 16 -1 19 -3 4 -6 -2 -5 -13z"/>
<path d="M2733 2355 c0 -38 2 -53 4 -32 2 20 2 52 0 70 -2 17 -4 1 -4 -38z"/>
<path d="M2766 2395 c-3 -8 -1 -15 4 -15 6 0 10 7 10 15 0 8 -2 15 -4 15 -2 0
-6 -7 -10 -15z"/>
<path d="M2757 2333 c-4 -3 -7 -16 -6 -27 0 -19 1 -19 10 3 10 24 8 36 -4 24z"/>
<path d="M2796 2314 c-4 -9 -4 -19 -1 -22 2 -3 7 3 11 12 4 9 4 19 1 22 -2 3
-7 -3 -11 -12z"/>
<path d="M2816 2268 c-3 -13 -2 -26 2 -30 4 -4 8 6 9 23 3 35 -2 38 -11 7z"/>
<path d="M2745 2227 c-4 -10 -5 -21 -1 -24 10 -10 18 4 13 24 -4 17 -4 17 -12
0z"/>
<path d="M2785 2190 c-3 -5 -1 -10 4 -10 6 0 11 5 11 10 0 6 -2 10 -4 10 -3 0
-8 -4 -11 -10z"/>
<path d="M6420 1805 c0 -8 6 -31 14 -50 9 -21 11 -37 5 -40 -5 -4 -8 -52 -7
-108 l2 -102 3 98 c3 73 7 97 17 97 11 0 11 6 0 38 -7 20 -13 45 -14 54 0 22
-20 35 -20 13z"/>
<path d="M6472 1660 c0 -14 2 -19 5 -12 2 6 2 18 0 25 -3 6 -5 1 -5 -13z"/>
<path d="M6491 1619 c-1 -9 6 -33 15 -54 8 -21 13 -44 9 -53 -4 -12 -3 -13 9
-3 13 11 12 18 -3 54 -10 23 -20 49 -24 57 -4 13 -6 12 -6 -1z"/>
<path d="M6540 1494 c0 -12 7 -27 15 -34 9 -7 13 -21 10 -31 -4 -11 -2 -19 3
-19 14 0 8 39 -12 75 -13 26 -16 27 -16 9z"/>
<path d="M6490 1475 c0 -8 5 -15 10 -15 6 0 10 7 10 15 0 8 -4 15 -10 15 -5 0
-10 -7 -10 -15z"/>
<path d="M6455 1404 c4 -78 13 -124 25 -124 4 0 5 -11 3 -24 -5 -23 12 -44 25
-31 3 3 1 10 -7 14 -7 5 -11 14 -10 22 1 8 0 21 -3 29 -26 78 -27 84 -17 97 8
9 8 17 1 26 -5 6 -12 23 -15 37 -3 14 -4 -7 -2 -46z"/>
<path d="M6590 1389 c1 -8 7 -25 15 -39 13 -22 14 -23 14 -5 0 11 -6 29 -14
39 -11 14 -15 16 -15 5z"/>
<path d="M6515 1300 c-3 -5 -1 -10 4 -10 6 0 11 5 11 10 0 6 -2 10 -4 10 -3 0
-8 -4 -11 -10z"/>
<path d="M6538 1273 c7 -3 16 -2 19 1 4 3 -2 6 -13 5 -11 0 -14 -3 -6 -6z"/>
<path d="M6570 1259 c0 -5 5 -7 10 -4 6 3 10 8 10 11 0 2 -4 4 -10 4 -5 0 -10
-5 -10 -11z"/>
<path d="M6531 1234 c-12 -14 -11 -16 4 -12 10 1 20 9 23 16 5 17 -10 15 -27
-4z"/>
<path d="M7870 10460 c0 -575 3 -890 10 -890 15 0 16 13 75 570 9 80 20 181
25 225 5 44 12 107 15 140 5 58 15 150 35 325 6 47 17 153 25 235 8 83 17 166
19 186 l4 37 -97 31 c-54 17 -100 31 -104 31 -4 0 -7 -400 -7 -890z"/>
<path d="M5293 9419 l-33 -21 0 -564 c0 -387 3 -564 10 -564 24 0 67 30 80 56
23 41 22 1090 0 1104 -20 13 -20 13 -57 -11z"/>
<path d="M4563 8977 c-29 -18 -52 -35 -53 -39 0 -7 30 -11 107 -12 24 -1 26 2
26 39 0 51 -12 52 -80 12z"/>
</g>
</svg>
